<?xml version="1.0" encoding="utf-8"?>
<!-- Generator: Adobe Illustrator 16.0.0, SVG Export Plug-In . SVG Version: 6.00 Build 0)  -->
<!DOCTYPE svg PUBLIC "-//W3C//DTD SVG 1.1//EN" "http://www.w3.org/Graphics/SVG/1.1/DTD/svg11.dtd">
<svg version="1.1" id="Layer_1" xmlns="http://www.w3.org/2000/svg" xmlns:xlink="http://www.w3.org/1999/xlink" x="0px" y="0px"
	 width="128px" height="128px" viewBox="0 0 800 800" enable-background="new 0 0 800 800" xml:space="preserve">
<g>
	<g>
		<rect x="373.785" y="401.707" fill="#3F59FF" width="9.54" height="9.968"/>
		<rect x="364.245" y="401.707" fill="#3F59FF" width="9.54" height="9.968"/>
		<rect x="355.073" y="401.707" fill="#3F59FF" width="9.173" height="9.968"/>
		<rect x="345.532" y="401.707" fill="#3F59FF" width="9.54" height="9.968"/>
		<rect x="335.992" y="401.707" fill="#3F59FF" width="9.54" height="9.968"/>
		<rect x="373.785" y="382.156" fill="#3F59FF" width="9.54" height="9.968"/>
		<rect x="364.245" y="382.156" fill="#3F59FF" width="9.54" height="9.968"/>
		<rect x="355.073" y="382.156" fill="#3F59FF" width="9.173" height="9.968"/>
		<rect x="355.073" y="362.222" fill="#3F59FF" width="9.173" height="9.967"/>
		<rect x="345.532" y="362.222" fill="#3F59FF" width="9.54" height="9.967"/>
		<rect x="335.992" y="362.222" fill="#3F59FF" width="9.54" height="9.967"/>
		<rect x="373.785" y="372.188" fill="#009421" width="9.54" height="9.968"/>
		<rect x="364.245" y="372.188" fill="#009421" width="9.54" height="9.968"/>
		<rect x="345.532" y="372.188" fill="#009421" width="9.54" height="9.968"/>
		<rect x="335.992" y="372.188" fill="#009421" width="9.54" height="9.968"/>
		<rect x="373.785" y="392.124" fill="#009421" width="9.54" height="9.583"/>
		<rect x="364.245" y="392.124" fill="#009421" width="9.54" height="9.583"/>
		<rect x="355.073" y="392.124" fill="#009421" width="9.173" height="9.583"/>
		<rect x="345.532" y="392.124" fill="#009421" width="9.54" height="9.583"/>
		<rect x="335.992" y="392.124" fill="#009421" width="9.54" height="9.583"/>
		<rect x="373.785" y="411.675" fill="#009421" width="9.54" height="9.968"/>
		<rect x="364.245" y="411.675" fill="#009421" width="9.54" height="9.968"/>
		<rect x="355.073" y="411.675" fill="#009421" width="9.173" height="9.968"/>
		<rect x="345.532" y="411.675" fill="#009421" width="9.54" height="9.968"/>
		<rect x="335.992" y="411.675" fill="#009421" width="9.54" height="9.968"/>
		<rect x="307.739" y="401.707" fill="#009421" width="9.173" height="9.968"/>
		<rect x="307.739" y="392.124" fill="#009421" width="9.173" height="9.583"/>
		<rect x="307.739" y="382.156" fill="#009421" width="9.173" height="9.968"/>
		<rect x="307.739" y="372.188" fill="#009421" width="9.173" height="9.968"/>
		<rect x="307.739" y="362.222" fill="#009421" width="9.173" height="9.967"/>
		<rect x="316.912" y="401.707" fill="#9BA900" width="9.54" height="9.968"/>
		<rect x="316.912" y="392.124" fill="#9BA900" width="9.54" height="9.583"/>
		<rect x="316.912" y="382.156" fill="#9BA900" width="9.54" height="9.968"/>
		<rect x="316.912" y="372.188" fill="#9BA900" width="9.54" height="9.968"/>
		<rect x="316.912" y="362.222" fill="#9BA900" width="9.54" height="9.967"/>
		<rect x="298.199" y="401.707" fill="#9BA900" width="9.54" height="9.968"/>
		<rect x="298.199" y="392.124" fill="#9BA900" width="9.54" height="9.583"/>
		<rect x="298.199" y="382.156" fill="#9BA900" width="9.54" height="9.968"/>
		<rect x="298.199" y="372.188" fill="#9BA900" width="9.54" height="9.968"/>
		<rect x="298.199" y="362.222" fill="#9BA900" width="9.54" height="9.967"/>
		<rect x="373.785" y="362.222" fill="#0008A9" width="9.54" height="9.967"/>
		<rect x="364.245" y="362.222" fill="#0008A9" width="9.54" height="9.967"/>
		<rect x="355.073" y="372.188" fill="#0008A9" width="9.173" height="9.968"/>
		<rect x="345.532" y="382.156" fill="#0008A9" width="9.54" height="9.968"/>
		<rect x="335.992" y="382.156" fill="#0008A9" width="9.54" height="9.968"/>
		<rect x="326.452" y="362.222" fill="#00FF39" width="9.54" height="9.967"/>
		<rect x="326.452" y="372.188" fill="#00FF39" width="9.54" height="9.968"/>
		<rect x="326.452" y="382.156" fill="#00FF39" width="9.54" height="9.968"/>
		<rect x="326.452" y="392.124" fill="#00FF39" width="9.54" height="9.583"/>
		<rect x="326.452" y="401.707" fill="#00FF39" width="9.54" height="9.968"/>
		<rect x="326.452" y="411.675" fill="#00FF39" width="9.54" height="9.968"/>
		<rect x="316.912" y="411.675" fill="#00FF39" width="9.54" height="9.968"/>
		<rect x="307.739" y="411.675" fill="#00FF39" width="9.173" height="9.968"/>
		<rect x="298.199" y="411.675" fill="#00FF39" width="9.54" height="9.968"/>
		<rect x="364.245" y="302.8" fill="#D4FFD6" width="9.54" height="9.968"/>
		<rect x="364.245" y="312.768" fill="#D4FFD6" width="9.54" height="9.967"/>
		<rect x="373.785" y="302.8" fill="#D4FFD6" width="9.54" height="9.968"/>
		<rect x="373.785" y="312.768" fill="#D4FFD6" width="9.54" height="9.967"/>
		<rect x="373.785" y="332.703" fill="#D4FFD6" width="9.54" height="9.968"/>
		<rect x="373.785" y="322.735" fill="#D4FFD6" width="9.54" height="9.968"/>
		<rect x="364.245" y="332.703" fill="#D4FFD6" width="9.54" height="9.968"/>
		<rect x="364.245" y="322.735" fill="#D4FFD6" width="9.54" height="9.968"/>
		<rect x="355.073" y="322.735" fill="#D4FFD6" width="9.173" height="9.968"/>
		<rect x="355.073" y="332.703" fill="#D4FFD6" width="9.173" height="9.968"/>
		<rect x="345.532" y="332.703" fill="#D4FFD6" width="9.54" height="9.968"/>
		<rect x="345.532" y="322.735" fill="#D4FFD6" width="9.54" height="9.968"/>
		<rect x="326.452" y="332.703" fill="#D4FFD6" width="9.54" height="9.968"/>
		<rect x="316.912" y="332.703" fill="#D4FFD6" width="9.54" height="9.968"/>
		<rect x="307.739" y="332.703" fill="#D4FFD6" width="9.173" height="9.968"/>
		<rect x="298.199" y="332.703" fill="#D4FFD6" width="9.54" height="9.968"/>
		<rect x="326.452" y="322.735" fill="#D4FFD6" width="9.54" height="9.968"/>
		<rect x="316.912" y="322.735" fill="#D4FFD6" width="9.54" height="9.968"/>
		<rect x="307.739" y="322.735" fill="#D4FFD6" width="9.173" height="9.968"/>
		<rect x="298.199" y="322.735" fill="#D4FFD6" width="9.54" height="9.968"/>
		<rect x="307.739" y="312.768" fill="#D4FFD6" width="9.173" height="9.967"/>
		<rect x="298.199" y="312.768" fill="#D4FFD6" width="9.54" height="9.967"/>
		<rect x="307.739" y="302.8" fill="#D4FFD6" width="9.173" height="9.968"/>
		<rect x="298.199" y="302.8" fill="#D4FFD6" width="9.54" height="9.968"/>
		<rect x="279.119" y="382.156" fill="#D40006" width="9.541" height="9.968"/>
		<rect x="269.579" y="382.156" fill="#D40006" width="9.54" height="9.968"/>
		<rect x="279.119" y="362.222" width="9.541" height="9.967"/>
		<rect x="279.119" y="372.188" width="9.541" height="9.968"/>
		<rect x="269.579" y="372.188" width="9.54" height="9.968"/>
		<rect x="269.579" y="362.222" width="9.54" height="9.967"/>
		<rect x="392.866" y="362.222" width="9.539" height="9.967"/>
		<rect x="411.578" y="362.222" fill="#BF0000" width="9.541" height="9.967"/>
		<rect x="411.578" y="382.156" fill="#91A900" width="9.541" height="9.968"/>
		<rect x="411.578" y="372.188" fill="#91A900" width="9.541" height="9.968"/>
		<rect x="411.578" y="352.254" fill="#BF0000" width="9.541" height="9.968"/>
		<rect x="411.578" y="342.67" fill="#91A900" width="9.541" height="9.583"/>
		<rect x="411.578" y="332.703" fill="#91A900" width="9.541" height="9.968"/>
		<rect x="430.658" y="411.675" fill="#293F00" width="9.541" height="9.968"/>
		<rect x="411.578" y="401.707" fill="#293F00" width="9.541" height="9.968"/>
		<rect x="402.406" y="392.124" fill="#293F00" width="9.173" height="9.583"/>
		<rect x="430.658" y="302.8" fill="#293F00" width="9.541" height="9.968"/>
		<rect x="411.578" y="312.768" fill="#293F00" width="9.541" height="9.967"/>
		<rect x="402.406" y="322.735" fill="#293F00" width="9.173" height="9.968"/>
		<rect x="421.119" y="401.707" width="9.539" height="9.968"/>
		<rect x="411.578" y="392.124" width="9.541" height="9.583"/>
		<rect x="421.119" y="312.768" width="9.539" height="9.967"/>
		<rect x="411.578" y="322.735" width="9.541" height="9.968"/>
		<rect x="402.406" y="332.703" fill="#293F00" width="9.173" height="9.968"/>
		<rect x="402.406" y="342.67" fill="#293F00" width="9.173" height="9.583"/>
		<rect x="402.406" y="382.156" fill="#293F00" width="9.173" height="9.968"/>
		<rect x="402.406" y="372.188" fill="#293F00" width="9.173" height="9.968"/>
		<rect x="402.406" y="362.222" width="9.173" height="9.967"/>
		<rect x="373.785" y="352.254" width="9.54" height="9.968"/>
		<rect x="364.245" y="352.254" width="9.54" height="9.968"/>
		<rect x="335.992" y="352.254" width="9.54" height="9.968"/>
		<rect x="345.532" y="352.254" width="9.54" height="9.968"/>
		<rect x="355.073" y="352.254" width="9.173" height="9.968"/>
		<rect x="316.912" y="352.254" width="9.54" height="9.968"/>
		<rect x="326.452" y="352.254" width="9.54" height="9.968"/>
		<rect x="307.739" y="352.254" width="9.173" height="9.968"/>
		<rect x="298.199" y="352.254" width="9.54" height="9.968"/>
		<rect x="402.406" y="352.254" width="9.173" height="9.968"/>
		<rect x="392.866" y="352.254" width="9.539" height="9.968"/>
		<rect x="383.325" y="421.643" width="9.541" height="9.967"/>
		<rect x="383.325" y="411.675" width="9.541" height="9.968"/>
		<rect x="383.325" y="401.707" width="9.541" height="9.968"/>
		<rect x="383.325" y="392.124" width="9.541" height="9.583"/>
		<rect x="383.325" y="382.156" width="9.541" height="9.968"/>
		<rect x="383.325" y="372.188" width="9.541" height="9.968"/>
		<rect x="383.325" y="362.222" width="9.541" height="9.967"/>
		<rect x="383.325" y="352.254" width="9.541" height="9.968"/>
		<rect x="383.325" y="342.67" width="9.541" height="9.583"/>
		<rect x="383.325" y="332.703" width="9.541" height="9.968"/>
		<rect x="383.325" y="322.735" width="9.541" height="9.968"/>
		<rect x="383.325" y="312.768" width="9.541" height="9.967"/>
		<rect x="383.325" y="302.8" width="9.541" height="9.968"/>
		<rect x="383.325" y="293.217" width="9.541" height="9.583"/>
		<rect x="383.325" y="283.249" width="9.541" height="9.968"/>
		<rect x="373.785" y="441.577" width="9.54" height="9.584"/>
		<rect x="373.785" y="431.609" width="9.54" height="9.968"/>
		<rect x="373.785" y="421.643" width="9.54" height="9.967"/>
		<rect x="373.785" y="342.67" fill="#B7A9FF" width="9.54" height="9.583"/>
		<rect x="373.785" y="293.217" fill="#F7BFFF" width="9.54" height="9.583"/>
		<rect x="373.785" y="283.249" width="9.54" height="9.968"/>
		<rect x="364.245" y="441.577" width="9.54" height="9.584"/>
		<rect x="364.245" y="431.609" width="9.54" height="9.968"/>
		<rect x="364.245" y="421.643" width="9.54" height="9.967"/>
		<rect x="364.245" y="342.67" fill="#B7A9FF" width="9.54" height="9.583"/>
		<rect x="364.245" y="293.217" fill="#F7BFFF" width="9.54" height="9.583"/>
		<rect x="364.245" y="283.249" width="9.54" height="9.968"/>
		<rect x="355.073" y="421.643" width="9.173" height="9.967"/>
		<rect x="355.073" y="342.67" fill="#B7A9FF" width="9.173" height="9.583"/>
		<rect x="355.073" y="312.768" width="9.173" height="9.967"/>
		<rect x="355.073" y="302.8" width="9.173" height="9.968"/>
		<rect x="355.073" y="293.217" fill="#F7BFFF" width="9.173" height="9.583"/>
		<rect x="355.073" y="283.249" width="9.173" height="9.968"/>
		<rect x="355.073" y="253.347" fill="#E90000" width="9.173" height="9.968"/>
		<rect x="345.532" y="421.643" width="9.54" height="9.967"/>
		<rect x="345.532" y="342.67" fill="#B7A9FF" width="9.54" height="9.583"/>
		<rect x="345.532" y="312.768" width="9.54" height="9.967"/>
		<rect x="345.532" y="302.8" width="9.54" height="9.968"/>
		<rect x="345.532" y="293.217" fill="#F7BFFF" width="9.54" height="9.583"/>
		<rect x="345.532" y="283.249" width="9.54" height="9.968"/>
		<rect x="345.532" y="253.347" fill="#E90000" width="9.54" height="9.968"/>
		<rect x="335.992" y="421.643" width="9.54" height="9.967"/>
		<rect x="335.992" y="342.67" fill="#B7A9FF" width="9.54" height="9.583"/>
		<rect x="335.992" y="332.703" width="9.54" height="9.968"/>
		<rect x="335.992" y="322.735" width="9.54" height="9.968"/>
		<rect x="335.992" y="312.768" width="9.54" height="9.967"/>
		<rect x="335.992" y="302.8" width="9.54" height="9.968"/>
		<rect x="335.992" y="293.217" fill="#F7BFFF" width="9.54" height="9.583"/>
		<rect x="335.992" y="283.249" width="9.54" height="9.968"/>
		<rect x="335.992" y="273.281" fill="#A92200" width="9.54" height="9.968"/>
		<rect x="335.992" y="263.314" fill="#A92200" width="9.54" height="9.967"/>
		<rect x="335.992" y="253.347" fill="#E90000" width="9.54" height="9.968"/>
		<rect x="326.452" y="421.643" width="9.54" height="9.967"/>
		<rect x="326.452" y="342.67" fill="#B7A9FF" width="9.54" height="9.583"/>
		<rect x="326.452" y="312.768" width="9.54" height="9.967"/>
		<rect x="326.452" y="302.8" width="9.54" height="9.968"/>
		<rect x="326.452" y="293.217" fill="#F7BFFF" width="9.54" height="9.583"/>
		<rect x="326.452" y="283.249" width="9.54" height="9.968"/>
		<rect x="326.452" y="253.347" fill="#E90000" width="9.54" height="9.968"/>
		<rect x="316.912" y="421.643" width="9.54" height="9.967"/>
		<rect x="316.912" y="342.67" fill="#B7A9FF" width="9.54" height="9.583"/>
		<rect x="316.912" y="312.768" width="9.54" height="9.967"/>
		<rect x="316.912" y="302.8" width="9.54" height="9.968"/>
		<rect x="316.912" y="293.217" fill="#F7BFFF" width="9.54" height="9.583"/>
		<rect x="316.912" y="283.249" width="9.54" height="9.968"/>
		<rect x="316.912" y="253.347" fill="#E90000" width="9.54" height="9.968"/>
		<rect x="307.739" y="441.577" width="9.173" height="9.584"/>
		<rect x="307.739" y="431.609" width="9.173" height="9.968"/>
		<rect x="307.739" y="421.643" width="9.173" height="9.967"/>
		<rect x="307.739" y="342.67" fill="#B7A9FF" width="9.173" height="9.583"/>
		<rect x="307.739" y="293.217" fill="#F7BFFF" width="9.173" height="9.583"/>
		<rect x="307.739" y="283.249" width="9.173" height="9.968"/>
		<rect x="298.199" y="441.577" width="9.54" height="9.584"/>
		<rect x="298.199" y="431.609" width="9.54" height="9.968"/>
		<rect x="298.199" y="421.643" width="9.54" height="9.967"/>
		<rect x="298.199" y="342.67" fill="#B7A9FF" width="9.54" height="9.583"/>
		<rect x="298.199" y="293.217" fill="#F7BFFF" width="9.54" height="9.583"/>
		<rect x="298.199" y="283.249" width="9.54" height="9.968"/>
		<rect x="288.659" y="421.643" width="9.54" height="9.967"/>
		<rect x="288.659" y="411.675" width="9.54" height="9.968"/>
		<rect x="288.659" y="401.707" width="9.54" height="9.968"/>
		<rect x="288.659" y="392.124" width="9.54" height="9.583"/>
		<rect x="288.659" y="382.156" width="9.54" height="9.968"/>
		<rect x="288.659" y="372.188" width="9.54" height="9.968"/>
		<rect x="288.659" y="362.222" width="9.54" height="9.967"/>
		<rect x="288.659" y="352.254" width="9.54" height="9.968"/>
		<rect x="288.659" y="342.67" width="9.54" height="9.583"/>
		<rect x="288.659" y="332.703" width="9.54" height="9.968"/>
		<rect x="288.659" y="322.735" width="9.54" height="9.968"/>
		<rect x="288.659" y="312.768" width="9.54" height="9.967"/>
		<rect x="288.659" y="302.8" width="9.54" height="9.968"/>
		<rect x="288.659" y="293.217" width="9.54" height="9.583"/>
		<rect x="288.659" y="283.249" width="9.54" height="9.968"/>
		<rect x="279.119" y="352.254" width="9.541" height="9.968"/>
		<rect x="269.579" y="352.254" width="9.54" height="9.968"/>
	</g>
</g>
</svg>
