<?xml version="1.0" encoding="utf-8"?>
<!-- Generator: Adobe Illustrator 16.0.0, SVG Export Plug-In . SVG Version: 6.00 Build 0)  -->
<!DOCTYPE svg PUBLIC "-//W3C//DTD SVG 1.1//EN" "http://www.w3.org/Graphics/SVG/1.1/DTD/svg11.dtd">
<svg version="1.1" id="Layer_1" xmlns="http://www.w3.org/2000/svg" xmlns:xlink="http://www.w3.org/1999/xlink" x="0px" y="0px"
	 width="128px" height="128px" viewBox="0 0 800 800" enable-background="new 0 0 800 800" xml:space="preserve">
<g>
	<g>
		<rect x="373.785" y="401.707" fill="#3F59FF" width="9.54" height="9.968"/>
		<rect x="364.245" y="401.707" fill="#3F59FF" width="9.54" height="9.968"/>
		<rect x="355.073" y="401.707" fill="#3F59FF" width="9.173" height="9.968"/>
		<rect x="345.532" y="401.707" fill="#3F59FF" width="9.54" height="9.968"/>
		<rect x="335.992" y="401.707" fill="#3F59FF" width="9.54" height="9.968"/>
		<path fill="#3F59FF" d="M376.975,382.156c-0.001,1.292-0.198,2.585-0.623,3.826c-0.543,1.588-1.407,3.137-2.566,4.371v1.771h9.54
			v-9.968H376.975z"/>
		<path fill="#3F59FF" d="M356.965,388.036c-1.436-1.303-1.797-2.849-1.477-4.26c-0.145-0.136-0.279-0.278-0.415-0.418v8.767h8.059
			C360.89,391.238,358.855,389.75,356.965,388.036z"/>
		<path fill="#3F59FF" d="M364.245,369.151v-6.93h-9.173v9.967h0.187C357.597,370.285,361.062,369.224,364.245,369.151z"/>
		<rect x="345.532" y="362.222" fill="#3F59FF" width="9.54" height="9.967"/>
		<rect x="335.992" y="362.222" fill="#3F59FF" width="9.54" height="9.967"/>
		<path fill="#009421" d="M373.785,372.188v1.257c2.014,2.409,3.194,5.559,3.189,8.711h6.351v-9.968H373.785z"/>
		<path fill="#009421" d="M353.493,381.218c-1.939-3.789-0.842-6.808,1.579-8.88v-0.15h-9.54v9.968h8.542
			C353.859,381.851,353.658,381.54,353.493,381.218z"/>
		<rect x="335.992" y="372.188" fill="#009421" width="9.54" height="9.968"/>
		<rect x="373.785" y="392.124" fill="#009421" width="9.54" height="9.583"/>
		<path fill="#009421" d="M369.184,392.861c-1.756,0.259-3.396,0.101-4.939-0.352v9.198h9.54v-9.583h-2.326
			C370.762,392.481,370.005,392.74,369.184,392.861z"/>
		<path fill="#009421" d="M363.131,392.124h-8.059v9.583h9.173v-9.198C363.868,392.398,363.497,392.269,363.131,392.124z"/>
		<rect x="345.532" y="392.124" fill="#009421" width="9.54" height="9.583"/>
		<rect x="335.992" y="392.124" fill="#009421" width="9.54" height="9.583"/>
		<rect x="373.785" y="411.675" fill="#009421" width="9.54" height="9.968"/>
		<rect x="364.245" y="411.675" fill="#009421" width="9.54" height="9.968"/>
		<rect x="355.073" y="411.675" fill="#009421" width="9.173" height="9.968"/>
		<rect x="345.532" y="411.675" fill="#009421" width="9.54" height="9.968"/>
		<rect x="335.992" y="411.675" fill="#009421" width="9.54" height="9.968"/>
		<path fill="#009421" d="M308.161,401.707c-0.13,0.162-0.269,0.318-0.422,0.466v9.502h9.173v-9.968H308.161z"/>
		<path fill="#009421" d="M307.739,392.124v2.45c1.747,1.748,2.122,5.012,0.422,7.133h8.751v-9.583H307.739z"/>
		<rect x="307.739" y="382.156" fill="#009421" width="9.173" height="9.968"/>
		<rect x="307.739" y="372.188" fill="#009421" width="9.173" height="9.968"/>
		<rect x="307.739" y="362.222" fill="#009421" width="9.173" height="9.967"/>
		<rect x="316.912" y="401.707" fill="#9BA900" width="9.54" height="9.968"/>
		<rect x="316.912" y="392.124" fill="#9BA900" width="9.54" height="9.583"/>
		<rect x="316.912" y="382.156" fill="#9BA900" width="9.54" height="9.968"/>
		<rect x="316.912" y="372.188" fill="#9BA900" width="9.54" height="9.968"/>
		<rect x="316.912" y="362.222" fill="#9BA900" width="9.54" height="9.967"/>
		<path fill="#9BA900" d="M305.829,403.321c-2.615,0.915-5.141,2.046-7.63,3.263v5.091h9.54v-9.502
			C307.237,402.652,306.606,403.05,305.829,403.321z"/>
		<path fill="#9BA900" d="M303.171,393.679c1.926-0.674,3.501-0.172,4.568,0.896v-2.45h-9.54v3.516
			C299.832,394.932,301.485,394.269,303.171,393.679z"/>
		<rect x="298.199" y="382.156" fill="#9BA900" width="9.54" height="9.968"/>
		<rect x="298.199" y="372.188" fill="#9BA900" width="9.54" height="9.968"/>
		<rect x="298.199" y="362.222" fill="#9BA900" width="9.54" height="9.967"/>
		<rect x="373.785" y="362.222" fill="#0008A9" width="9.54" height="9.967"/>
		<path fill="#0008A9" d="M367.284,369.41c2.018,0.43,3.802,1.43,5.283,2.778h1.219v-9.967h-9.54v6.93
			C365.307,369.127,366.339,369.209,367.284,369.41z"/>
		<path fill="#0008A9" d="M354.074,382.156h-8.542v9.968h9.54v-8.767C354.701,382.973,354.367,382.572,354.074,382.156z"/>
		<rect x="335.992" y="382.156" fill="#0008A9" width="9.54" height="9.968"/>
		<rect x="326.452" y="362.222" fill="#00FF39" width="9.54" height="9.967"/>
		<rect x="326.452" y="372.188" fill="#00FF39" width="9.54" height="9.968"/>
		<rect x="326.452" y="382.156" fill="#00FF39" width="9.54" height="9.968"/>
		<rect x="326.452" y="392.124" fill="#00FF39" width="9.54" height="9.583"/>
		<rect x="326.452" y="401.707" fill="#00FF39" width="9.54" height="9.968"/>
		<rect x="326.452" y="411.675" fill="#00FF39" width="9.54" height="9.968"/>
		<rect x="316.912" y="411.675" fill="#00FF39" width="9.54" height="9.968"/>
		<rect x="307.739" y="411.675" fill="#00FF39" width="9.173" height="9.968"/>
		<rect x="298.199" y="411.675" fill="#00FF39" width="9.54" height="9.968"/>
		<rect x="364.245" y="302.8" fill="#D4FFD6" width="9.54" height="9.968"/>
		<rect x="364.245" y="312.768" fill="#D4FFD6" width="9.54" height="9.967"/>
		<path fill="#D4FFD6" d="M379.014,302.8h-5.229v9.968h9.54v-5.689C381.886,305.654,380.438,304.237,379.014,302.8z"/>
		<rect x="373.785" y="312.768" fill="#D4FFD6" width="9.54" height="9.967"/>
		<rect x="373.785" y="332.703" fill="#D4FFD6" width="9.54" height="9.968"/>
		<rect x="373.785" y="322.735" fill="#D4FFD6" width="9.54" height="9.968"/>
		<rect x="364.245" y="332.703" fill="#D4FFD6" width="9.54" height="9.968"/>
		<rect x="364.245" y="322.735" fill="#D4FFD6" width="9.54" height="9.968"/>
		<rect x="355.073" y="322.735" fill="#D4FFD6" width="9.173" height="9.968"/>
		<rect x="355.073" y="332.703" fill="#D4FFD6" width="9.173" height="9.968"/>
		<rect x="345.532" y="332.703" fill="#D4FFD6" width="9.54" height="9.968"/>
		<rect x="345.532" y="322.735" fill="#D4FFD6" width="9.54" height="9.968"/>
		<rect x="326.452" y="332.703" fill="#D4FFD6" width="9.54" height="9.968"/>
		<path fill="#D4FFD6" d="M318.178,332.703c2.87,1.093,5.624,3.182,6.325,6.208c0.313,1.351,0.271,2.603-0.025,3.76h1.975v-9.968
			H318.178z"/>
		<path fill="#D4FFD6" d="M303.341,336.237c-0.053-0.072-0.109-0.148-0.158-0.214c-0.722-0.968-0.875-2.171-0.635-3.321h-4.349
			v9.968h4.15C301.981,340.427,302.161,338.15,303.341,336.237z"/>
		<rect x="326.452" y="322.735" fill="#D4FFD6" width="9.54" height="9.968"/>
		<path fill="#D4FFD6" d="M316.912,322.735v9.552c0.421,0.118,0.844,0.255,1.266,0.416h8.274v-9.968H316.912z"/>
		<path fill="#D4FFD6" d="M311.818,330.977c0.187,0.25,0.367,0.502,0.547,0.753c1.235-0.027,2.487,0.085,3.722,0.35
			c0.272,0.059,0.549,0.13,0.826,0.207v-9.552h-9.173v5.78C309.322,328.636,310.781,329.586,311.818,330.977z"/>
		<path fill="#D4FFD6" d="M304.977,329.183c0.924-0.542,1.863-0.737,2.762-0.668v-5.78h-9.54v9.968h4.349
			C302.849,331.252,303.775,329.886,304.977,329.183z"/>
		<rect x="307.739" y="312.768" fill="#D4FFD6" width="9.173" height="9.967"/>
		<rect x="298.199" y="312.768" fill="#D4FFD6" width="9.54" height="9.967"/>
		<path fill="#D4FFD6" d="M315.926,302.8h-8.187v9.968h9.173v-4.789C315.703,306.608,315.376,304.548,315.926,302.8z"/>
		<rect x="298.199" y="302.8" fill="#D4FFD6" width="9.54" height="9.968"/>
		<rect x="279.119" y="382.156" fill="#D40006" width="9.541" height="9.968"/>
		<rect x="269.579" y="382.156" fill="#D40006" width="9.54" height="9.968"/>
		<path d="M287.582,362.513c-0.125-0.09-0.242-0.19-0.357-0.291h-8.105v9.967h9.541v-8.614
			C288.251,363.276,287.886,362.92,287.582,362.513z"/>
		<rect x="279.119" y="372.188" width="9.541" height="9.968"/>
		<rect x="269.579" y="372.188" width="9.54" height="9.968"/>
		<rect x="269.579" y="362.222" width="9.54" height="9.967"/>
		<rect x="392.866" y="362.222" width="9.539" height="9.967"/>
		<path fill="#BF0000" d="M421.119,362.222h-9.541v9.141c1.125-0.107,2.288-0.11,3.479,0.002c1.118,0.105,2.361,0.317,3.642,0.638
			c0.445,0.055,0.89,0.123,1.334,0.186h1.087V362.222z"/>
		<rect x="411.578" y="352.254" fill="#BF0000" width="9.541" height="9.968"/>
		<path fill="#91A900" d="M421.119,350.117c-3.202,0.863-6.337,1.397-9.541,1.544v0.592h9.541V350.117z"/>
		<path fill="#293F00" d="M404.171,351.321c-0.646-0.088-1.245-0.381-1.766-0.805v1.738h9.173v-0.592
			C409.169,351.772,406.721,351.668,404.171,351.321z"/>
		<path d="M411.578,371.363v-9.141h-9.173v9.967h0.304c2.55-0.421,5.097-0.632,7.641-0.667
			C410.753,371.454,411.163,371.402,411.578,371.363z"/>
		<rect x="373.785" y="352.254" width="9.54" height="9.968"/>
		<rect x="364.245" y="352.254" width="9.54" height="9.968"/>
		<rect x="335.992" y="352.254" width="9.54" height="9.968"/>
		<rect x="345.532" y="352.254" width="9.54" height="9.968"/>
		<rect x="355.073" y="352.254" width="9.173" height="9.968"/>
		<rect x="316.912" y="352.254" width="9.54" height="9.968"/>
		<rect x="326.452" y="352.254" width="9.54" height="9.968"/>
		<rect x="307.739" y="352.254" width="9.173" height="9.968"/>
		<rect x="298.199" y="352.254" width="9.54" height="9.968"/>
		<rect x="402.406" y="352.254" width="9.173" height="9.968"/>
		<rect x="392.866" y="352.254" width="9.539" height="9.968"/>
		<rect x="383.325" y="421.643" width="9.541" height="9.967"/>
		<rect x="383.325" y="411.675" width="9.541" height="9.968"/>
		<rect x="383.325" y="401.707" width="9.541" height="9.968"/>
		<rect x="383.325" y="392.124" width="9.541" height="9.583"/>
		<rect x="383.325" y="382.156" width="9.541" height="9.968"/>
		<rect x="383.325" y="372.188" width="9.541" height="9.968"/>
		<rect x="383.325" y="362.222" width="9.541" height="9.967"/>
		<rect x="383.325" y="352.254" width="9.541" height="9.968"/>
		<rect x="383.325" y="342.67" width="9.541" height="9.583"/>
		<rect x="383.325" y="332.703" width="9.541" height="9.968"/>
		<rect x="383.325" y="322.735" width="9.541" height="9.968"/>
		<path d="M388.965,313.036c-0.078-0.091-0.161-0.177-0.239-0.268h-5.4v9.967h9.541v-8.231
			C391.406,314.586,389.842,314.065,388.965,313.036z"/>
		<path d="M383.325,307.079v5.689h5.4C387.018,310.79,385.186,308.921,383.325,307.079z"/>
		<rect x="373.785" y="441.577" width="9.54" height="9.584"/>
		<rect x="373.785" y="431.609" width="9.54" height="9.968"/>
		<rect x="373.785" y="421.643" width="9.54" height="9.967"/>
		<rect x="373.785" y="342.67" fill="#B7A9FF" width="9.54" height="9.583"/>
		<path fill="#F7BFFF" d="M373.785,297.04v5.76h5.229C377.185,300.956,375.416,299.059,373.785,297.04z"/>
		<rect x="364.245" y="441.577" width="9.54" height="9.584"/>
		<rect x="364.245" y="431.609" width="9.54" height="9.968"/>
		<rect x="364.245" y="421.643" width="9.54" height="9.967"/>
		<rect x="364.245" y="342.67" fill="#B7A9FF" width="9.54" height="9.583"/>
		<path fill="#F7BFFF" d="M372.449,295.339c-0.511-0.696-0.983-1.405-1.429-2.122h-6.775v9.583h9.54v-5.76
			C373.332,296.479,372.877,295.921,372.449,295.339z"/>
		<path d="M367.023,283.249h-2.777v9.968h6.775C369.071,290.08,367.746,286.745,367.023,283.249z"/>
		<rect x="355.073" y="421.643" width="9.173" height="9.967"/>
		<rect x="355.073" y="342.67" fill="#B7A9FF" width="9.173" height="9.583"/>
		<rect x="355.073" y="312.768" width="9.173" height="9.967"/>
		<rect x="355.073" y="302.8" width="9.173" height="9.968"/>
		<rect x="355.073" y="293.217" fill="#F7BFFF" width="9.173" height="9.583"/>
		<rect x="355.073" y="283.249" width="9.173" height="9.968"/>
		<rect x="345.532" y="421.643" width="9.54" height="9.967"/>
		<rect x="345.532" y="342.67" fill="#B7A9FF" width="9.54" height="9.583"/>
		<rect x="345.532" y="312.768" width="9.54" height="9.967"/>
		<rect x="345.532" y="302.8" width="9.54" height="9.968"/>
		<rect x="345.532" y="293.217" fill="#F7BFFF" width="9.54" height="9.583"/>
		<rect x="345.532" y="283.249" width="9.54" height="9.968"/>
		<rect x="335.992" y="421.643" width="9.54" height="9.967"/>
		<rect x="335.992" y="342.67" fill="#B7A9FF" width="9.54" height="9.583"/>
		<rect x="335.992" y="332.703" width="9.54" height="9.968"/>
		<rect x="335.992" y="322.735" width="9.54" height="9.968"/>
		<rect x="335.992" y="312.768" width="9.54" height="9.967"/>
		<rect x="335.992" y="302.8" width="9.54" height="9.968"/>
		<rect x="335.992" y="293.217" fill="#F7BFFF" width="9.54" height="9.583"/>
		<path d="M335.992,283.407v9.81h9.54v-9.968h-4.459C339.403,283.461,337.704,283.518,335.992,283.407z"/>
		<path fill="#A92200" d="M341.073,283.249h4.459V282.3C344.082,282.745,342.59,283.056,341.073,283.249z"/>
		<rect x="326.452" y="421.643" width="9.54" height="9.967"/>
		<rect x="326.452" y="342.67" fill="#B7A9FF" width="9.54" height="9.583"/>
		<rect x="326.452" y="312.768" width="9.54" height="9.967"/>
		<path d="M327.075,302.8c0.49,1.557,0.283,3.361-0.623,4.706v5.262h9.54V302.8H327.075z"/>
		<path fill="#F7BFFF" d="M326.452,293.217v8.277c0.27,0.4,0.477,0.842,0.623,1.306h8.917v-9.583H326.452z"/>
		<path d="M334.321,283.249h-7.869v9.968h9.54v-9.81C335.436,283.371,334.879,283.321,334.321,283.249z"/>
		<rect x="316.912" y="421.643" width="9.54" height="9.967"/>
		<path fill="#B7A9FF" d="M324.478,342.67c-0.797,3.117-3.49,5.522-6.454,7.147c-0.375,0.206-0.745,0.342-1.111,0.45v1.987h9.54
			v-9.583H324.478z"/>
		<rect x="316.912" y="312.768" width="9.54" height="9.967"/>
		<path d="M322.5,309.5c-0.36,0-0.696-0.036-1.016-0.094c-0.312,0.055-0.635,0.094-0.984,0.094c-1.587,0-2.782-0.607-3.588-1.521
			v4.789h9.54v-5.262C325.663,308.677,324.348,309.5,322.5,309.5z"/>
		<path fill="#F7BFFF" d="M321.492,299.593c0.317-0.058,0.651-0.093,1.008-0.093c1.848,0,3.163,0.823,3.952,1.994v-8.277h-9.54
			v7.804c0.806-0.914,2-1.521,3.588-1.521C320.852,299.5,321.179,299.537,321.492,299.593z"/>
		<rect x="316.912" y="283.249" width="9.54" height="9.968"/>
		<rect x="307.739" y="441.577" width="9.173" height="9.584"/>
		<rect x="307.739" y="431.609" width="9.173" height="9.968"/>
		<rect x="307.739" y="421.643" width="9.173" height="9.967"/>
		<path fill="#B7A9FF" d="M312.035,348.862c-1.189,1.065-2.791,1.673-4.296,1.568v1.824h9.173v-1.987
			C314.991,350.83,313.224,350.13,312.035,348.862z"/>
		<path fill="#F7BFFF" d="M316.912,301.021v-7.804h-9.173v9.583h8.187C316.132,302.146,316.459,301.535,316.912,301.021z"/>
		<rect x="307.739" y="283.249" width="9.173" height="9.968"/>
		<rect x="298.199" y="441.577" width="9.54" height="9.584"/>
		<rect x="298.199" y="431.609" width="9.54" height="9.968"/>
		<rect x="298.199" y="421.643" width="9.54" height="9.967"/>
		<path fill="#B7A9FF" d="M304.183,348.023c-0.829-1.604-1.524-3.467-1.834-5.353h-4.15v9.583h9.54v-1.824
			C306.327,350.332,305.001,349.607,304.183,348.023z"/>
		<rect x="298.199" y="293.217" fill="#F7BFFF" width="9.54" height="9.583"/>
		<rect x="298.199" y="283.249" width="9.54" height="9.968"/>
		<rect x="288.659" y="421.643" width="9.54" height="9.967"/>
		<rect x="288.659" y="411.675" width="9.54" height="9.968"/>
		<path d="M288.659,411.491v0.184h9.54v-5.091C294.987,408.155,291.837,409.87,288.659,411.491z"/>
		<path d="M298.199,395.64v-3.516h-9.54v8.138C291.802,398.64,294.958,397.045,298.199,395.64z"/>
		<rect x="288.659" y="382.156" width="9.54" height="9.968"/>
		<rect x="288.659" y="372.188" width="9.54" height="9.968"/>
		<path d="M295.703,362.222c-0.926,1.363-2.536,2.278-4.203,2.278c-1.088,0-2.052-0.349-2.841-0.926v8.614h9.54v-9.967H295.703z"/>
		<path d="M288.659,352.254v1.603c0.573-0.233,1.192-0.367,1.841-0.356c0.994,0.016,2.246,0.288,3.092,0.845
			c0.801,0.528,1.643,1.215,2.094,2.093c0.564,1.098,0.757,1.819,0.814,3.062c0.046,0.998-0.262,1.934-0.797,2.722h2.496v-9.968
			H288.659z"/>
		<rect x="288.659" y="342.67" width="9.54" height="9.583"/>
		<rect x="288.659" y="332.703" width="9.54" height="9.968"/>
		<rect x="288.659" y="322.735" width="9.54" height="9.968"/>
		<rect x="288.659" y="312.768" width="9.54" height="9.967"/>
		<rect x="288.659" y="302.8" width="9.54" height="9.968"/>
		<rect x="288.659" y="293.217" width="9.54" height="9.583"/>
		<rect x="288.659" y="283.249" width="9.54" height="9.968"/>
		<path d="M285.5,358.5c0-2.053,1.324-3.897,3.159-4.644v-1.603h-9.541v9.968h8.105C286.178,361.311,285.5,359.994,285.5,358.5z"/>
		<rect x="269.579" y="352.254" width="9.54" height="9.968"/>
	</g>
</g>
</svg>
