<?xml version="1.0" encoding="utf-8"?>
<!-- Generator: Adobe Illustrator 16.0.0, SVG Export Plug-In . SVG Version: 6.00 Build 0)  -->
<!DOCTYPE svg PUBLIC "-//W3C//DTD SVG 1.1//EN" "http://www.w3.org/Graphics/SVG/1.1/DTD/svg11.dtd">
<svg version="1.1" id="Layer_1" xmlns="http://www.w3.org/2000/svg" xmlns:xlink="http://www.w3.org/1999/xlink" x="0px" y="0px"
	 width="27.299px" height="31.65px" viewBox="0 0 27.299 31.65" enable-background="new 0 0 27.299 31.65" xml:space="preserve">
<g>
	<g>
		<rect x="22.72" y="17.42" fill="#BF0000" width="1.526" height="1.595"/>
		<rect x="22.72" y="20.609" fill="#91A900" width="1.526" height="1.595"/>
		<rect x="22.72" y="19.014" fill="#91A900" width="1.526" height="1.595"/>
		<rect x="22.72" y="15.825" fill="#BF0000" width="1.526" height="1.595"/>
		<rect x="22.72" y="14.292" fill="#91A900" width="1.526" height="1.533"/>
		<rect x="22.72" y="12.697" fill="#91A900" width="1.526" height="1.595"/>
		<rect x="25.772" y="25.333" fill="#293F00" width="1.526" height="1.595"/>
		<rect x="22.72" y="23.737" fill="#293F00" width="1.526" height="1.595"/>
		<rect x="21.252" y="22.204" fill="#293F00" width="1.468" height="1.533"/>
		<rect x="25.772" y="7.913" fill="#293F00" width="1.526" height="1.595"/>
		<rect x="22.72" y="9.507" fill="#293F00" width="1.526" height="1.595"/>
		<rect x="21.252" y="11.102" fill="#293F00" width="1.468" height="1.595"/>
		<rect x="24.246" y="23.737" width="1.526" height="1.595"/>
		<rect x="22.72" y="22.204" width="1.526" height="1.533"/>
		<rect x="24.246" y="9.507" width="1.526" height="1.595"/>
		<rect x="22.72" y="11.102" width="1.526" height="1.595"/>
		<rect x="21.252" y="12.697" fill="#293F00" width="1.468" height="1.595"/>
		<rect x="21.252" y="14.292" fill="#293F00" width="1.468" height="1.533"/>
		<rect x="21.252" y="20.609" fill="#293F00" width="1.468" height="1.595"/>
		<rect x="21.252" y="19.014" fill="#293F00" width="1.468" height="1.595"/>
		<rect x="21.252" y="17.42" width="1.468" height="1.595"/>
		<rect x="21.252" y="15.825" width="1.468" height="1.595"/>
	</g>
</g>
</svg>
