<?xml version="1.0" encoding="utf-8"?>
<!-- Generator: Adobe Illustrator 16.0.0, SVG Export Plug-In . SVG Version: 6.00 Build 0)  -->
<!DOCTYPE svg PUBLIC "-//W3C//DTD SVG 1.1//EN" "http://www.w3.org/Graphics/SVG/1.1/DTD/svg11.dtd">
<svg version="1.1" id="Layer_1" xmlns="http://www.w3.org/2000/svg" xmlns:xlink="http://www.w3.org/1999/xlink" x="0px" y="0px"
	 width="27.299px" height="31.65px" viewBox="0 0 27.299 31.65" enable-background="new 0 0 27.299 31.65" xml:space="preserve">
<g>
	<g>
		<rect x="16.673" y="23.737" fill="#3F59FF" width="1.526" height="1.595"/>
		<rect x="15.146" y="23.737" fill="#3F59FF" width="1.526" height="1.595"/>
		<rect x="13.679" y="23.737" fill="#3F59FF" width="1.468" height="1.595"/>
		<rect x="12.152" y="23.737" fill="#3F59FF" width="1.526" height="1.595"/>
		<rect x="10.626" y="23.737" fill="#3F59FF" width="1.526" height="1.595"/>
		<rect x="16.673" y="20.609" fill="#3F59FF" width="1.526" height="1.595"/>
		<rect x="15.146" y="20.609" fill="#3F59FF" width="1.526" height="1.595"/>
		<rect x="13.679" y="20.609" fill="#3F59FF" width="1.468" height="1.595"/>
		<rect x="13.679" y="17.42" fill="#3F59FF" width="1.468" height="1.595"/>
		<rect x="12.152" y="17.42" fill="#3F59FF" width="1.526" height="1.595"/>
		<rect x="10.626" y="17.42" fill="#3F59FF" width="1.526" height="1.595"/>
		<rect x="16.673" y="19.014" fill="#009421" width="1.526" height="1.595"/>
		<rect x="15.146" y="19.014" fill="#009421" width="1.526" height="1.595"/>
		<rect x="12.152" y="19.014" fill="#009421" width="1.526" height="1.595"/>
		<rect x="10.626" y="19.014" fill="#009421" width="1.526" height="1.595"/>
		<rect x="16.673" y="22.204" fill="#009421" width="1.526" height="1.533"/>
		<rect x="15.146" y="22.204" fill="#009421" width="1.526" height="1.533"/>
		<rect x="13.679" y="22.204" fill="#009421" width="1.468" height="1.533"/>
		<rect x="12.152" y="22.204" fill="#009421" width="1.526" height="1.533"/>
		<rect x="10.626" y="22.204" fill="#009421" width="1.526" height="1.533"/>
		<rect x="16.673" y="25.333" fill="#009421" width="1.526" height="1.595"/>
		<rect x="15.146" y="25.333" fill="#009421" width="1.526" height="1.595"/>
		<rect x="13.679" y="25.333" fill="#009421" width="1.468" height="1.595"/>
		<rect x="12.152" y="25.333" fill="#009421" width="1.526" height="1.595"/>
		<rect x="10.626" y="25.333" fill="#009421" width="1.526" height="1.595"/>
		<rect x="6.105" y="23.737" fill="#009421" width="1.468" height="1.595"/>
		<rect x="6.105" y="22.204" fill="#009421" width="1.468" height="1.533"/>
		<rect x="6.105" y="20.609" fill="#009421" width="1.468" height="1.595"/>
		<rect x="6.105" y="19.014" fill="#009421" width="1.468" height="1.595"/>
		<rect x="6.105" y="17.42" fill="#009421" width="1.468" height="1.595"/>
		<rect x="7.573" y="23.737" fill="#9BA900" width="1.526" height="1.595"/>
		<rect x="7.573" y="22.204" fill="#9BA900" width="1.526" height="1.533"/>
		<rect x="7.573" y="20.609" fill="#9BA900" width="1.526" height="1.595"/>
		<rect x="7.573" y="19.014" fill="#9BA900" width="1.526" height="1.595"/>
		<rect x="7.573" y="17.42" fill="#9BA900" width="1.526" height="1.595"/>
		<rect x="4.579" y="23.737" fill="#9BA900" width="1.526" height="1.595"/>
		<rect x="4.579" y="22.204" fill="#9BA900" width="1.526" height="1.533"/>
		<rect x="4.579" y="20.609" fill="#9BA900" width="1.526" height="1.595"/>
		<rect x="4.579" y="19.014" fill="#9BA900" width="1.526" height="1.595"/>
		<rect x="4.579" y="17.42" fill="#9BA900" width="1.526" height="1.595"/>
		<rect x="16.673" y="17.42" fill="#0008A9" width="1.526" height="1.595"/>
		<rect x="15.146" y="17.42" fill="#0008A9" width="1.526" height="1.595"/>
		<rect x="13.679" y="19.014" fill="#0008A9" width="1.468" height="1.595"/>
		<rect x="12.152" y="20.609" fill="#0008A9" width="1.526" height="1.595"/>
		<rect x="10.626" y="20.609" fill="#0008A9" width="1.526" height="1.595"/>
		<rect x="9.1" y="17.42" fill="#00FF39" width="1.526" height="1.595"/>
		<rect x="9.1" y="19.014" fill="#00FF39" width="1.526" height="1.595"/>
		<rect x="9.1" y="20.609" fill="#00FF39" width="1.526" height="1.595"/>
		<rect x="9.1" y="22.204" fill="#00FF39" width="1.526" height="1.533"/>
		<rect x="9.1" y="23.737" fill="#00FF39" width="1.526" height="1.595"/>
		<rect x="9.1" y="25.333" fill="#00FF39" width="1.526" height="1.595"/>
		<rect x="7.573" y="25.333" fill="#00FF39" width="1.526" height="1.595"/>
		<rect x="6.105" y="25.333" fill="#00FF39" width="1.468" height="1.595"/>
		<rect x="4.579" y="25.333" fill="#00FF39" width="1.526" height="1.595"/>
		<rect x="15.146" y="7.913" fill="#D4FFD6" width="1.526" height="1.595"/>
		<rect x="15.146" y="9.507" fill="#D4FFD6" width="1.526" height="1.595"/>
		<rect x="16.673" y="7.913" fill="#D4FFD6" width="1.526" height="1.595"/>
		<rect x="16.673" y="9.507" fill="#D4FFD6" width="1.526" height="1.595"/>
		<rect x="16.673" y="12.697" fill="#D4FFD6" width="1.526" height="1.595"/>
		<rect x="16.673" y="11.102" fill="#D4FFD6" width="1.526" height="1.595"/>
		<rect x="15.146" y="12.697" fill="#D4FFD6" width="1.526" height="1.595"/>
		<rect x="15.146" y="11.102" fill="#D4FFD6" width="1.526" height="1.595"/>
		<rect x="13.679" y="11.102" fill="#D4FFD6" width="1.468" height="1.595"/>
		<rect x="13.679" y="12.697" fill="#D4FFD6" width="1.468" height="1.595"/>
		<rect x="12.152" y="12.697" fill="#D4FFD6" width="1.526" height="1.595"/>
		<rect x="12.152" y="11.102" fill="#D4FFD6" width="1.526" height="1.595"/>
		<rect x="9.1" y="12.697" fill="#D4FFD6" width="1.526" height="1.595"/>
		<rect x="7.573" y="12.697" fill="#D4FFD6" width="1.526" height="1.595"/>
		<rect x="6.105" y="12.697" fill="#D4FFD6" width="1.468" height="1.595"/>
		<rect x="4.579" y="12.697" fill="#D4FFD6" width="1.526" height="1.595"/>
		<rect x="9.1" y="11.102" fill="#D4FFD6" width="1.526" height="1.595"/>
		<rect x="7.573" y="11.102" fill="#D4FFD6" width="1.526" height="1.595"/>
		<rect x="6.105" y="11.102" fill="#D4FFD6" width="1.468" height="1.595"/>
		<rect x="4.579" y="11.102" fill="#D4FFD6" width="1.526" height="1.595"/>
		<rect x="6.105" y="9.507" fill="#D4FFD6" width="1.468" height="1.595"/>
		<rect x="4.579" y="9.507" fill="#D4FFD6" width="1.526" height="1.595"/>
		<rect x="6.105" y="7.913" fill="#D4FFD6" width="1.468" height="1.595"/>
		<rect x="4.579" y="7.913" fill="#D4FFD6" width="1.526" height="1.595"/>
		<rect x="1.526" y="20.609" fill="#D40006" width="1.526" height="1.595"/>
		<rect y="20.609" fill="#D40006" width="1.526" height="1.595"/>
		<rect x="1.526" y="17.42" width="1.526" height="1.595"/>
		<rect x="1.526" y="19.014" width="1.526" height="1.595"/>
		<rect y="19.014" width="1.526" height="1.595"/>
		<rect y="17.42" width="1.526" height="1.595"/>
		<rect x="19.726" y="17.42" width="1.526" height="1.595"/>
		<rect x="22.72" y="17.42" fill="#BF0000" width="1.526" height="1.595"/>
		<rect x="22.72" y="15.825" fill="#BF0000" width="1.526" height="1.595"/>
		<rect x="21.252" y="17.42" width="1.468" height="1.595"/>
		<rect x="16.673" y="15.825" width="1.526" height="1.595"/>
		<rect x="15.146" y="15.825" width="1.526" height="1.595"/>
		<rect x="10.626" y="15.825" width="1.526" height="1.595"/>
		<rect x="12.152" y="15.825" width="1.526" height="1.595"/>
		<rect x="13.679" y="15.825" width="1.468" height="1.595"/>
		<rect x="7.573" y="15.825" width="1.526" height="1.595"/>
		<rect x="9.1" y="15.825" width="1.526" height="1.595"/>
		<rect x="6.105" y="15.825" width="1.468" height="1.595"/>
		<rect x="4.579" y="15.825" width="1.526" height="1.595"/>
		<rect x="21.252" y="15.825" width="1.468" height="1.595"/>
		<rect x="19.726" y="15.825" width="1.526" height="1.595"/>
		<rect x="18.199" y="26.927" width="1.526" height="1.595"/>
		<rect x="18.199" y="25.333" width="1.526" height="1.595"/>
		<rect x="18.199" y="23.737" width="1.526" height="1.595"/>
		<rect x="18.199" y="22.204" width="1.526" height="1.533"/>
		<rect x="18.199" y="20.609" width="1.526" height="1.595"/>
		<rect x="18.199" y="19.014" width="1.526" height="1.595"/>
		<rect x="18.199" y="17.42" width="1.526" height="1.595"/>
		<rect x="18.199" y="15.825" width="1.526" height="1.595"/>
		<rect x="18.199" y="14.292" width="1.526" height="1.533"/>
		<rect x="18.199" y="12.697" width="1.526" height="1.595"/>
		<rect x="18.199" y="11.102" width="1.526" height="1.595"/>
		<rect x="18.199" y="9.507" width="1.526" height="1.595"/>
		<rect x="18.199" y="7.913" width="1.526" height="1.595"/>
		<rect x="18.199" y="6.379" width="1.526" height="1.534"/>
		<rect x="18.199" y="4.784" width="1.526" height="1.595"/>
		<rect x="16.673" y="30.117" width="1.526" height="1.533"/>
		<rect x="16.673" y="28.522" width="1.526" height="1.595"/>
		<rect x="16.673" y="26.927" width="1.526" height="1.595"/>
		<rect x="16.673" y="14.292" fill="#B7A9FF" width="1.526" height="1.533"/>
		<rect x="16.673" y="6.379" fill="#F7BFFF" width="1.526" height="1.534"/>
		<rect x="16.673" y="4.784" width="1.526" height="1.595"/>
		<rect x="15.146" y="30.117" width="1.526" height="1.533"/>
		<rect x="15.146" y="28.522" width="1.526" height="1.595"/>
		<rect x="15.146" y="26.927" width="1.526" height="1.595"/>
		<rect x="15.146" y="14.292" fill="#B7A9FF" width="1.526" height="1.533"/>
		<rect x="15.146" y="6.379" fill="#F7BFFF" width="1.526" height="1.534"/>
		<rect x="15.146" y="4.784" width="1.526" height="1.595"/>
		<rect x="13.679" y="26.927" width="1.468" height="1.595"/>
		<rect x="13.679" y="14.292" fill="#B7A9FF" width="1.468" height="1.533"/>
		<rect x="13.679" y="9.507" width="1.468" height="1.595"/>
		<rect x="13.679" y="7.913" width="1.468" height="1.595"/>
		<rect x="13.679" y="6.379" fill="#F7BFFF" width="1.468" height="1.534"/>
		<rect x="13.679" y="4.784" width="1.468" height="1.595"/>
		<rect x="13.679" fill="#E90000" width="1.468" height="1.595"/>
		<rect x="12.152" y="26.927" width="1.526" height="1.595"/>
		<rect x="12.152" y="14.292" fill="#B7A9FF" width="1.526" height="1.533"/>
		<rect x="12.152" y="9.507" width="1.526" height="1.595"/>
		<rect x="12.152" y="7.913" width="1.526" height="1.595"/>
		<rect x="12.152" y="6.379" fill="#F7BFFF" width="1.526" height="1.534"/>
		<rect x="12.152" y="4.784" width="1.526" height="1.595"/>
		<rect x="12.152" fill="#E90000" width="1.526" height="1.595"/>
		<rect x="10.626" y="26.927" width="1.526" height="1.595"/>
		<rect x="10.626" y="14.292" fill="#B7A9FF" width="1.526" height="1.533"/>
		<rect x="10.626" y="12.697" width="1.526" height="1.595"/>
		<rect x="10.626" y="11.102" width="1.526" height="1.595"/>
		<rect x="10.626" y="9.507" width="1.526" height="1.595"/>
		<rect x="10.626" y="7.913" width="1.526" height="1.595"/>
		<rect x="10.626" y="6.379" fill="#F7BFFF" width="1.526" height="1.534"/>
		<rect x="10.626" y="4.784" width="1.526" height="1.595"/>
		<rect x="10.626" y="3.189" fill="#A92200" width="1.526" height="1.595"/>
		<rect x="10.626" y="1.595" fill="#A92200" width="1.526" height="1.595"/>
		<rect x="10.626" fill="#E90000" width="1.526" height="1.595"/>
		<rect x="9.1" y="26.927" width="1.526" height="1.595"/>
		<rect x="9.1" y="14.292" fill="#B7A9FF" width="1.526" height="1.533"/>
		<rect x="9.1" y="9.507" width="1.526" height="1.595"/>
		<rect x="9.1" y="7.913" width="1.526" height="1.595"/>
		<rect x="9.1" y="6.379" fill="#F7BFFF" width="1.526" height="1.534"/>
		<rect x="9.1" y="4.784" width="1.526" height="1.595"/>
		<rect x="9.1" fill="#E90000" width="1.526" height="1.595"/>
		<rect x="7.573" y="26.927" width="1.526" height="1.595"/>
		<rect x="7.573" y="14.292" fill="#B7A9FF" width="1.526" height="1.533"/>
		<rect x="7.573" y="9.507" width="1.526" height="1.595"/>
		<rect x="7.573" y="7.913" width="1.526" height="1.595"/>
		<rect x="7.573" y="6.379" fill="#F7BFFF" width="1.526" height="1.534"/>
		<rect x="7.573" y="4.784" width="1.526" height="1.595"/>
		<rect x="7.573" fill="#E90000" width="1.526" height="1.595"/>
		<rect x="6.105" y="30.117" width="1.468" height="1.533"/>
		<rect x="6.105" y="28.522" width="1.468" height="1.595"/>
		<rect x="6.105" y="26.927" width="1.468" height="1.595"/>
		<rect x="6.105" y="14.292" fill="#B7A9FF" width="1.468" height="1.533"/>
		<rect x="6.105" y="6.379" fill="#F7BFFF" width="1.468" height="1.534"/>
		<rect x="6.105" y="4.784" width="1.468" height="1.595"/>
		<rect x="4.579" y="30.117" width="1.526" height="1.533"/>
		<rect x="4.579" y="28.522" width="1.526" height="1.595"/>
		<rect x="4.579" y="26.927" width="1.526" height="1.595"/>
		<rect x="4.579" y="14.292" fill="#B7A9FF" width="1.526" height="1.533"/>
		<rect x="4.579" y="6.379" fill="#F7BFFF" width="1.526" height="1.534"/>
		<rect x="4.579" y="4.784" width="1.526" height="1.595"/>
		<rect x="3.053" y="26.927" width="1.526" height="1.595"/>
		<rect x="3.053" y="25.333" width="1.526" height="1.595"/>
		<rect x="3.053" y="23.737" width="1.526" height="1.595"/>
		<rect x="3.053" y="22.204" width="1.526" height="1.533"/>
		<rect x="3.053" y="20.609" width="1.526" height="1.595"/>
		<rect x="3.053" y="19.014" width="1.526" height="1.595"/>
		<rect x="3.053" y="17.42" width="1.526" height="1.595"/>
		<rect x="3.053" y="15.825" width="1.526" height="1.595"/>
		<rect x="3.053" y="14.292" width="1.526" height="1.533"/>
		<rect x="3.053" y="12.697" width="1.526" height="1.595"/>
		<rect x="3.053" y="11.102" width="1.526" height="1.595"/>
		<rect x="3.053" y="9.507" width="1.526" height="1.595"/>
		<rect x="3.053" y="7.913" width="1.526" height="1.595"/>
		<rect x="3.053" y="6.379" width="1.526" height="1.534"/>
		<rect x="3.053" y="4.784" width="1.526" height="1.595"/>
		<rect x="1.526" y="15.825" width="1.526" height="1.595"/>
		<rect y="15.825" width="1.526" height="1.595"/>
	</g>
</g>
</svg>
