<?xml version="1.0" encoding="utf-8"?>
<!-- Generator: Adobe Illustrator 16.0.0, SVG Export Plug-In . SVG Version: 6.00 Build 0)  -->
<!DOCTYPE svg PUBLIC "-//W3C//DTD SVG 1.1//EN" "http://www.w3.org/Graphics/SVG/1.1/DTD/svg11.dtd">
<svg version="1.1" id="Layer_1" xmlns="http://www.w3.org/2000/svg" xmlns:xlink="http://www.w3.org/1999/xlink" x="0px" y="0px"
	 width="27.299px" height="31.65px" viewBox="0 0 27.299 31.65" enable-background="new 0 0 27.299 31.65" xml:space="preserve">
<g>
	<g id="XMLID_1_">
		<g>
			<rect x="22.72" y="17.415" fill="#BF0000" width="1.529" height="1.601"/>
			<rect x="22.72" y="15.825" fill="#BF0000" width="1.529" height="1.59"/>
			<rect x="21.249" y="17.415" width="1.471" height="1.601"/>
			<rect x="21.249" y="15.825" width="1.471" height="1.59"/>
			<rect x="19.729" y="17.415" fill="#697F00" width="1.52" height="1.601"/>
			<rect x="19.729" y="15.825" fill="#697F00" width="1.52" height="1.59"/>
			<rect x="18.199" y="26.925" fill="#0D6A00" width="1.53" height="1.601"/>
			<rect x="18.199" y="25.335" fill="#0D6A00" width="1.53" height="1.59"/>
			<rect x="18.199" y="23.735" fill="#0D6A00" width="1.53" height="1.6"/>
			<rect x="18.199" y="22.205" fill="#0D6A00" width="1.53" height="1.53"/>
			<rect x="18.199" y="20.605" fill="#0D6A00" width="1.53" height="1.6"/>
			<rect x="18.199" y="19.015" fill="#0D6A00" width="1.53" height="1.59"/>
			<rect x="18.199" y="17.415" fill="#0D6A00" width="1.53" height="1.601"/>
			<rect x="18.199" y="15.825" fill="#0D6A00" width="1.53" height="1.59"/>
			<rect x="18.199" y="14.295" fill="#150500" width="1.53" height="1.53"/>
			<rect x="18.199" y="12.695" fill="#150500" width="1.53" height="1.6"/>
			<rect x="18.199" y="11.105" fill="#150500" width="1.53" height="1.59"/>
			<rect x="18.199" y="9.505" fill="#150500" width="1.53" height="1.6"/>
			<rect x="18.199" y="7.915" fill="#150500" width="1.53" height="1.59"/>
			<rect x="18.199" y="6.375" fill="#150500" width="1.53" height="1.54"/>
			<rect x="18.199" y="4.785" fill="#F92AFF" width="1.53" height="1.59"/>
			<rect x="16.669" y="30.115" width="1.53" height="1.54"/>
			<rect x="16.669" y="28.525" fill="#697F00" width="1.53" height="1.59"/>
			<rect x="16.669" y="26.925" fill="#0D6A00" width="1.53" height="1.601"/>
			<rect x="16.669" y="25.335" fill="#FFFFFF" width="1.53" height="1.59"/>
			<rect x="16.669" y="23.735" fill="#FFFFFF" width="1.53" height="1.6"/>
			<rect x="16.669" y="22.205" fill="#FFFFFF" width="1.53" height="1.53"/>
			<rect x="16.669" y="20.605" fill="#000B6A" width="1.53" height="1.6"/>
			<rect x="16.669" y="19.015" fill="#FFFFFF" width="1.53" height="1.59"/>
			<rect x="16.669" y="17.415" fill="#FFFFFF" width="1.53" height="1.601"/>
			<rect x="16.669" y="15.825" fill="#0D6A00" width="1.53" height="1.59"/>
			<rect x="16.669" y="14.295" fill="#00BCBF" width="1.53" height="1.53"/>
			<rect x="16.669" y="12.695" fill="#BFFFF6" width="1.53" height="1.6"/>
			<rect x="16.669" y="11.105" fill="#BFFFF6" width="1.53" height="1.59"/>
			<rect x="16.669" y="9.505" fill="#BFFFF6" width="1.53" height="1.6"/>
			<rect x="16.669" y="7.915" fill="#00BCBF" width="1.53" height="1.59"/>
			<rect x="16.669" y="6.375" fill="#00BCBF" width="1.53" height="1.54"/>
			<rect x="16.669" y="4.785" fill="#F92AFF" width="1.53" height="1.59"/>
			<rect x="15.149" y="30.115" width="1.52" height="1.54"/>
			<rect x="15.149" y="28.525" fill="#697F00" width="1.52" height="1.59"/>
			<rect x="15.149" y="26.925" fill="#0D6A00" width="1.52" height="1.601"/>
			<rect x="15.149" y="25.335" fill="#FFFFFF" width="1.52" height="1.59"/>
			<rect x="15.149" y="23.735" fill="#FFFFFF" width="1.52" height="1.6"/>
			<rect x="15.149" y="22.205" fill="#000B6A" width="1.52" height="1.53"/>
			<rect x="15.149" y="20.605" fill="#FFFFFF" width="1.52" height="1.6"/>
			<rect x="15.149" y="19.015" fill="#000B6A" width="1.52" height="1.59"/>
			<rect x="15.149" y="17.415" fill="#FFFFFF" width="1.52" height="1.601"/>
			<rect x="15.149" y="15.825" fill="#0D6A00" width="1.52" height="1.59"/>
			<rect x="15.149" y="14.295" fill="#00BCBF" width="1.52" height="1.53"/>
			<rect x="15.149" y="12.695" fill="#FFFFFF" width="1.52" height="1.6"/>
			<rect x="15.149" y="11.105" fill="#FFFFFF" width="1.52" height="1.59"/>
			<rect x="15.149" y="9.505" fill="#D4FFD6" width="1.52" height="1.6"/>
			<rect x="15.149" y="7.915" fill="#00BCBF" width="1.52" height="1.59"/>
			<rect x="15.149" y="6.375" fill="#00BCBF" width="1.52" height="1.54"/>
			<rect x="15.149" y="4.785" fill="#150500" width="1.52" height="1.59"/>
			<rect x="13.679" y="26.925" fill="#0D6A00" width="1.47" height="1.601"/>
			<rect x="13.679" y="25.335" fill="#FFFFFF" width="1.47" height="1.59"/>
			<rect x="13.679" y="23.735" fill="#000B6A" width="1.47" height="1.6"/>
			<rect x="13.679" y="22.205" fill="#150400" width="1.47" height="1.53"/>
			<rect x="13.679" y="20.605" fill="#150400" width="1.47" height="1.6"/>
			<rect x="13.679" y="19.015" fill="#FFFFFF" width="1.47" height="1.59"/>
			<rect x="13.679" y="17.415" fill="#FFFFFF" width="1.47" height="1.601"/>
			<rect x="13.679" y="15.825" fill="#0D6A00" width="1.47" height="1.59"/>
			<rect x="13.679" y="14.295" fill="#00BCBF" width="1.47" height="1.53"/>
			<rect x="13.679" y="12.695" fill="#FFFFFF" width="1.47" height="1.6"/>
			<rect x="13.679" y="11.105" fill="#FFFFFF" width="1.47" height="1.59"/>
			<rect x="13.679" y="9.505" fill="#FF001D" width="1.47" height="1.6"/>
			<rect x="13.679" y="7.915" fill="#FF001D" width="1.47" height="1.59"/>
			<rect x="13.679" y="6.375" fill="#00BCBF" width="1.47" height="1.54"/>
			<rect x="13.679" y="4.785" fill="#150500" width="1.47" height="1.59"/>
			<rect x="13.679" y="-0.005" fill="#FF2A30" width="1.47" height="1.6"/>
			<rect x="12.149" y="26.925" fill="#0D6A00" width="1.53" height="1.601"/>
			<rect x="12.149" y="25.335" fill="#FFFFFF" width="1.53" height="1.59"/>
			<rect x="12.149" y="23.735" fill="#150400" width="1.53" height="1.6"/>
			<rect x="12.149" y="22.205" fill="#F92AFF" width="1.53" height="1.53"/>
			<rect x="12.149" y="20.605" fill="#F92AFF" width="1.53" height="1.6"/>
			<rect x="12.149" y="19.015" fill="#150400" width="1.53" height="1.59"/>
			<rect x="12.149" y="17.415" fill="#FFFFFF" width="1.53" height="1.601"/>
			<rect x="12.149" y="15.825" fill="#0D6A00" width="1.53" height="1.59"/>
			<rect x="12.149" y="14.295" fill="#00BCBF" width="1.53" height="1.53"/>
			<rect x="12.149" y="12.695" fill="#D40000" width="1.53" height="1.6"/>
			<rect x="12.149" y="11.105" fill="#FFFFFF" width="1.53" height="1.59"/>
			<rect x="12.149" y="9.505" fill="#FFFFFF" width="1.53" height="1.6"/>
			<rect x="12.149" y="7.915" fill="#1580FF" width="1.53" height="1.59"/>
			<rect x="12.149" y="6.375" fill="#00BCBF" width="1.53" height="1.54"/>
			<rect x="12.149" y="4.785" fill="#150500" width="1.53" height="1.59"/>
			<rect x="12.149" y="-0.005" fill="#D41200" width="1.53" height="1.6"/>
			<rect x="10.629" y="26.925" fill="#0D6A00" width="1.52" height="1.601"/>
			<rect x="10.629" y="25.335" fill="#000B6A" width="1.52" height="1.59"/>
			<rect x="10.629" y="23.735" fill="#F92AFF" width="1.52" height="1.6"/>
			<rect x="10.629" y="22.205" fill="#F92AFF" width="1.52" height="1.53"/>
			<rect x="10.629" y="20.605" fill="#F92AFF" width="1.52" height="1.6"/>
			<rect x="10.629" y="19.015" fill="#F92AFF" width="1.52" height="1.59"/>
			<rect x="10.629" y="17.415" fill="#000B6A" width="1.52" height="1.601"/>
			<rect x="10.629" y="15.825" fill="#0D6A00" width="1.52" height="1.59"/>
			<rect x="10.629" y="14.295" fill="#00BCBF" width="1.52" height="1.53"/>
			<rect x="10.629" y="12.695" fill="#FFFFFF" width="1.52" height="1.6"/>
			<rect x="10.629" y="11.105" fill="#D40000" width="1.52" height="1.59"/>
			<rect x="10.629" y="9.505" fill="#FFFFFF" width="1.52" height="1.6"/>
			<rect x="10.629" y="7.915" fill="#1580FF" width="1.52" height="1.59"/>
			<rect x="10.629" y="6.375" fill="#00BCBF" width="1.52" height="1.54"/>
			<rect x="10.629" y="4.785" fill="#F92AFF" width="1.52" height="1.59"/>
			<rect x="10.629" y="3.195" fill="#00BCBF" width="1.52" height="1.59"/>
			<rect x="10.629" y="3.185" fill="#A92200" width="1.52" height="0.01"/>
			<rect x="10.629" y="1.595" fill="#00BCBF" width="1.52" height="1.59"/>
			<rect x="10.629" y="-0.005" fill="#D41200" width="1.52" height="1.6"/>
			<rect x="9.1" y="26.925" fill="#0D6A00" width="1.53" height="1.601"/>
			<rect x="9.1" y="25.335" fill="#FFFFFF" width="1.53" height="1.59"/>
			<rect x="9.1" y="23.735" fill="#150400" width="1.53" height="1.6"/>
			<rect x="9.1" y="22.205" fill="#F92AFF" width="1.53" height="1.53"/>
			<rect x="9.1" y="20.605" fill="#F92AFF" width="1.53" height="1.6"/>
			<rect x="9.1" y="19.015" fill="#150400" width="1.53" height="1.59"/>
			<rect x="9.1" y="17.415" fill="#FFFFFF" width="1.53" height="1.601"/>
			<rect x="9.1" y="15.825" fill="#0D6A00" width="1.53" height="1.59"/>
			<rect x="9.1" y="14.295" fill="#00BCBF" width="1.53" height="1.53"/>
			<rect x="9.1" y="12.695" fill="#D40000" width="1.53" height="1.6"/>
			<rect x="9.1" y="11.105" fill="#FFFFFF" width="1.53" height="1.59"/>
			<rect x="9.1" y="9.505" fill="#FFFFFF" width="1.53" height="1.6"/>
			<rect x="9.1" y="7.915" fill="#1580FF" width="1.53" height="1.59"/>
			<rect x="9.1" y="6.375" fill="#00BCBF" width="1.53" height="1.54"/>
			<rect x="9.1" y="4.785" fill="#150500" width="1.53" height="1.59"/>
			<rect x="9.1" y="-0.005" fill="#D41200" width="1.53" height="1.6"/>
			<rect x="7.569" y="26.925" fill="#0D6A00" width="1.53" height="1.601"/>
			<rect x="7.569" y="25.335" fill="#FFFFFF" width="1.53" height="1.59"/>
			<rect x="7.569" y="23.735" fill="#000B6A" width="1.53" height="1.6"/>
			<rect x="7.569" y="22.205" fill="#150400" width="1.53" height="1.53"/>
			<rect x="7.569" y="20.605" fill="#150400" width="1.53" height="1.6"/>
			<rect x="7.569" y="19.015" fill="#FFFFFF" width="1.53" height="1.59"/>
			<rect x="7.569" y="17.415" fill="#FFFFFF" width="1.53" height="1.601"/>
			<rect x="7.569" y="15.825" fill="#0D6A00" width="1.53" height="1.59"/>
			<rect x="7.569" y="14.295" fill="#00BCBF" width="1.53" height="1.53"/>
			<rect x="7.569" y="12.695" fill="#FFFFFF" width="1.53" height="1.6"/>
			<rect x="7.569" y="11.105" fill="#FFFFFF" width="1.53" height="1.59"/>
			<rect x="7.569" y="9.505" fill="#FF001D" width="1.53" height="1.6"/>
			<rect x="7.569" y="7.915" fill="#FF001D" width="1.53" height="1.59"/>
			<rect x="7.569" y="6.375" fill="#00BCBF" width="1.53" height="1.54"/>
			<rect x="7.569" y="4.785" fill="#150500" width="1.53" height="1.59"/>
			<rect x="7.569" y="-0.005" fill="#FF2A30" width="1.53" height="1.6"/>
			<rect x="6.109" y="30.115" width="1.46" height="1.54"/>
			<rect x="6.109" y="28.525" fill="#697F00" width="1.46" height="1.59"/>
			<rect x="6.109" y="26.925" fill="#0D6A00" width="1.46" height="1.601"/>
			<rect x="6.109" y="25.335" fill="#FFFFFF" width="1.46" height="1.59"/>
			<rect x="6.109" y="23.735" fill="#FFFFFF" width="1.46" height="1.6"/>
			<rect x="6.109" y="22.205" fill="#000B6A" width="1.46" height="1.53"/>
			<rect x="6.109" y="20.605" fill="#FFFFFF" width="1.46" height="1.6"/>
			<rect x="6.109" y="19.015" fill="#000B6A" width="1.46" height="1.59"/>
			<rect x="6.109" y="17.415" fill="#FFFFFF" width="1.46" height="1.601"/>
			<rect x="6.109" y="15.825" fill="#0D6A00" width="1.46" height="1.59"/>
			<rect x="6.109" y="14.295" fill="#00BCBF" width="1.46" height="1.53"/>
			<rect x="6.109" y="12.695" fill="#FFFFFF" width="1.46" height="1.6"/>
			<rect x="6.109" y="11.105" fill="#FFFFFF" width="1.46" height="1.59"/>
			<rect x="6.109" y="9.505" fill="#D4FFD6" width="1.46" height="1.6"/>
			<rect x="6.109" y="7.915" fill="#00BCBF" width="1.46" height="1.59"/>
			<rect x="6.109" y="6.375" fill="#00BCBF" width="1.46" height="1.54"/>
			<rect x="6.109" y="4.785" fill="#150500" width="1.46" height="1.59"/>
			<rect x="4.58" y="30.115" width="1.53" height="1.54"/>
			<rect x="4.58" y="28.525" fill="#697F00" width="1.53" height="1.59"/>
			<rect x="4.58" y="26.925" fill="#0D6A00" width="1.53" height="1.601"/>
			<rect x="4.58" y="25.335" fill="#FFFFFF" width="1.53" height="1.59"/>
			<rect x="4.58" y="23.735" fill="#FFFFFF" width="1.53" height="1.6"/>
			<rect x="4.58" y="22.205" fill="#FFFFFF" width="1.53" height="1.53"/>
			<rect x="4.58" y="20.605" fill="#000B6A" width="1.53" height="1.6"/>
			<rect x="4.58" y="19.015" fill="#FFFFFF" width="1.53" height="1.59"/>
			<rect x="4.58" y="17.415" fill="#FFFFFF" width="1.53" height="1.601"/>
			<rect x="4.58" y="15.825" fill="#0D6A00" width="1.53" height="1.59"/>
			<rect x="4.58" y="14.295" fill="#00BCBF" width="1.53" height="1.53"/>
			<rect x="4.58" y="12.695" fill="#BFFFF6" width="1.53" height="1.6"/>
			<rect x="4.58" y="11.105" fill="#FFFFFF" width="1.53" height="1.59"/>
			<rect x="4.58" y="9.505" fill="#FFFFFF" width="1.53" height="1.6"/>
			<rect x="4.58" y="7.915" fill="#00BCBF" width="1.53" height="1.59"/>
			<rect x="4.58" y="6.375" fill="#00BCBF" width="1.53" height="1.54"/>
			<rect x="4.58" y="4.785" fill="#F92AFF" width="1.53" height="1.59"/>
			<rect x="3.049" y="26.925" fill="#0D6A00" width="1.53" height="1.601"/>
			<rect x="3.049" y="25.335" fill="#0D6A00" width="1.53" height="1.59"/>
			<rect x="3.049" y="23.735" fill="#0D6A00" width="1.53" height="1.6"/>
			<rect x="3.049" y="22.205" fill="#0D6A00" width="1.53" height="1.53"/>
			<rect x="3.049" y="20.605" fill="#0D6A00" width="1.53" height="1.6"/>
			<rect x="3.049" y="19.015" fill="#0D6A00" width="1.53" height="1.59"/>
			<rect x="3.049" y="17.415" fill="#0D6A00" width="1.53" height="1.601"/>
			<rect x="3.049" y="15.825" fill="#0D6A00" width="1.53" height="1.59"/>
			<rect x="3.049" y="14.295" fill="#150500" width="1.53" height="1.53"/>
			<rect x="3.049" y="12.695" fill="#150500" width="1.53" height="1.6"/>
			<rect x="3.049" y="11.105" fill="#150500" width="1.53" height="1.59"/>
			<rect x="3.049" y="9.505" fill="#150500" width="1.53" height="1.6"/>
			<rect x="3.049" y="7.915" fill="#150500" width="1.53" height="1.59"/>
			<rect x="3.049" y="6.375" fill="#150500" width="1.53" height="1.54"/>
			<rect x="3.049" y="4.785" fill="#F92AFF" width="1.53" height="1.59"/>
			<rect x="1.529" y="20.605" fill="#D40006" width="1.52" height="1.6"/>
			<rect x="1.529" y="19.015" width="1.52" height="1.59"/>
			<rect x="1.529" y="17.415" fill="#150500" width="1.52" height="1.601"/>
			<rect x="1.529" y="15.825" fill="#697F00" width="1.52" height="1.59"/>
			<rect x="0" y="20.605" fill="#D40006" width="1.53" height="1.6"/>
			<rect x="0" y="19.015" width="1.53" height="1.59"/>
			<rect x="0" y="17.415" fill="#FF2500" width="1.53" height="1.601"/>
			<rect x="0" y="15.825" fill="#697F00" width="1.53" height="1.59"/>
		</g>
		<g>
		</g>
	</g>
</g>
</svg>
