<?xml version="1.0" encoding="utf-8"?>
<!-- Generator: Adobe Illustrator 16.0.0, SVG Export Plug-In . SVG Version: 6.00 Build 0)  -->
<!DOCTYPE svg PUBLIC "-//W3C//DTD SVG 1.1//EN" "http://www.w3.org/Graphics/SVG/1.1/DTD/svg11.dtd">
<svg version="1.1" id="Layer_1" xmlns="http://www.w3.org/2000/svg" xmlns:xlink="http://www.w3.org/1999/xlink" x="0px" y="0px"
	 width="34px" height="41px" viewBox="29.5 68.5 34 41" enable-background="new 29.5 68.5 34 41" xml:space="preserve">
<g>
	<g>
		<rect x="52.806" y="94.273" fill="#3F59FF" width="1.526" height="1.595"/>
		<rect x="51.279" y="94.273" fill="#3F59FF" width="1.526" height="1.595"/>
		<rect x="49.812" y="94.273" fill="#3F59FF" width="1.468" height="1.595"/>
		<rect x="48.285" y="94.273" fill="#3F59FF" width="1.526" height="1.595"/>
		<rect x="46.759" y="94.273" fill="#3F59FF" width="1.526" height="1.595"/>
		<path fill="#3F59FF" d="M53.316,91.145c0,0.207-0.032,0.414-0.1,0.613c-0.087,0.254-0.225,0.501-0.411,0.699v0.283h1.526v-1.596
			H53.316z"/>
		<path fill="#3F59FF" d="M50.114,92.086c-0.229-0.209-0.288-0.456-0.236-0.682c-0.023-0.021-0.044-0.045-0.066-0.066v1.402h1.29
			C50.742,92.598,50.417,92.359,50.114,92.086z"/>
		<path fill="#3F59FF" d="M51.279,89.064v-1.109h-1.468v1.596h0.03C50.215,89.246,50.77,89.076,51.279,89.064z"/>
		<rect x="48.285" y="87.955" fill="#3F59FF" width="1.526" height="1.596"/>
		<rect x="46.759" y="87.955" fill="#3F59FF" width="1.526" height="1.596"/>
		<path fill="#009421" d="M52.806,89.55v0.201c0.322,0.386,0.511,0.89,0.51,1.394h1.016V89.55H52.806z"/>
		<path fill="#009421" d="M49.559,90.995c-0.311-0.606-0.135-1.089,0.252-1.421V89.55h-1.526v1.595h1.367
			C49.618,91.096,49.585,91.047,49.559,90.995z"/>
		<rect x="46.759" y="89.55" fill="#009421" width="1.526" height="1.595"/>
		<rect x="52.806" y="92.74" fill="#009421" width="1.526" height="1.533"/>
		<path fill="#009421" d="M52.069,92.857c-0.281,0.042-0.543,0.017-0.79-0.057v1.473h1.526V92.74h-0.372
			C52.322,92.797,52.201,92.838,52.069,92.857z"/>
		<path fill="#009421" d="M51.101,92.74h-1.29v1.533h1.468v-1.473C51.219,92.783,51.16,92.764,51.101,92.74z"/>
		<rect x="48.285" y="92.74" fill="#009421" width="1.526" height="1.533"/>
		<rect x="46.759" y="92.74" fill="#009421" width="1.526" height="1.533"/>
		<rect x="52.806" y="95.868" fill="#009421" width="1.526" height="1.595"/>
		<rect x="51.279" y="95.868" fill="#009421" width="1.526" height="1.595"/>
		<rect x="49.812" y="95.868" fill="#009421" width="1.468" height="1.595"/>
		<rect x="48.285" y="95.868" fill="#009421" width="1.526" height="1.595"/>
		<rect x="46.759" y="95.868" fill="#009421" width="1.526" height="1.595"/>
		<path fill="#009421" d="M42.306,94.273c-0.021,0.025-0.043,0.051-0.067,0.074v1.521h1.468v-1.595H42.306z"/>
		<path fill="#009421" d="M42.238,92.74v0.392c0.279,0.28,0.339,0.802,0.067,1.142h1.4V92.74H42.238z"/>
		<rect x="42.238" y="91.145" fill="#009421" width="1.468" height="1.596"/>
		<rect x="42.238" y="89.55" fill="#009421" width="1.468" height="1.595"/>
		<rect x="42.238" y="87.955" fill="#009421" width="1.468" height="1.596"/>
		<rect x="43.706" y="94.273" fill="#9BA900" width="1.526" height="1.595"/>
		<rect x="43.706" y="92.74" fill="#9BA900" width="1.526" height="1.533"/>
		<rect x="43.706" y="91.145" fill="#9BA900" width="1.526" height="1.596"/>
		<rect x="43.706" y="89.55" fill="#9BA900" width="1.526" height="1.595"/>
		<rect x="43.706" y="87.955" fill="#9BA900" width="1.526" height="1.596"/>
		<path fill="#9BA900" d="M41.933,94.531c-0.418,0.146-0.823,0.328-1.221,0.522v0.814h1.526v-1.521
			C42.158,94.424,42.057,94.488,41.933,94.531z"/>
		<path fill="#9BA900" d="M41.507,92.988c0.308-0.107,0.56-0.027,0.731,0.144V92.74h-1.526v0.563
			C40.973,93.189,41.238,93.083,41.507,92.988z"/>
		<rect x="40.712" y="91.145" fill="#9BA900" width="1.526" height="1.596"/>
		<rect x="40.712" y="89.55" fill="#9BA900" width="1.526" height="1.595"/>
		<rect x="40.712" y="87.955" fill="#9BA900" width="1.526" height="1.596"/>
		<rect x="52.806" y="87.955" fill="#0008A9" width="1.526" height="1.596"/>
		<path fill="#0008A9" d="M51.766,89.105c0.323,0.068,0.608,0.229,0.845,0.445h0.195v-1.596h-1.526v1.109
			C51.449,89.061,51.614,89.073,51.766,89.105z"/>
		<path fill="#0008A9" d="M49.652,91.145h-1.367v1.596h1.526v-1.403C49.752,91.275,49.699,91.211,49.652,91.145z"/>
		<rect x="46.759" y="91.145" fill="#0008A9" width="1.526" height="1.596"/>
		<rect x="45.232" y="87.955" fill="#00FF39" width="1.526" height="1.596"/>
		<rect x="45.232" y="89.55" fill="#00FF39" width="1.526" height="1.595"/>
		<rect x="45.232" y="91.145" fill="#00FF39" width="1.526" height="1.596"/>
		<rect x="45.232" y="92.74" fill="#00FF39" width="1.526" height="1.533"/>
		<rect x="45.232" y="94.273" fill="#00FF39" width="1.526" height="1.595"/>
		<rect x="45.232" y="95.868" fill="#00FF39" width="1.526" height="1.595"/>
		<rect x="43.706" y="95.868" fill="#00FF39" width="1.526" height="1.595"/>
		<rect x="42.238" y="95.868" fill="#00FF39" width="1.468" height="1.595"/>
		<rect x="40.712" y="95.868" fill="#00FF39" width="1.526" height="1.595"/>
		<rect x="51.279" y="78.448" fill="#D4FFD6" width="1.526" height="1.595"/>
		<rect x="51.279" y="80.043" fill="#D4FFD6" width="1.526" height="1.595"/>
		<path fill="#D4FFD6" d="M53.642,78.448h-0.836v1.595h1.526v-0.91C54.102,78.904,53.87,78.678,53.642,78.448z"/>
		<rect x="52.806" y="80.043" fill="#D4FFD6" width="1.526" height="1.595"/>
		<rect x="52.806" y="83.232" fill="#D4FFD6" width="1.526" height="1.595"/>
		<rect x="52.806" y="81.638" fill="#D4FFD6" width="1.526" height="1.595"/>
		<rect x="51.279" y="83.232" fill="#D4FFD6" width="1.526" height="1.595"/>
		<rect x="51.279" y="81.638" fill="#D4FFD6" width="1.526" height="1.595"/>
		<rect x="49.812" y="81.638" fill="#D4FFD6" width="1.468" height="1.595"/>
		<rect x="49.812" y="83.232" fill="#D4FFD6" width="1.468" height="1.595"/>
		<rect x="48.285" y="83.232" fill="#D4FFD6" width="1.526" height="1.595"/>
		<rect x="48.285" y="81.638" fill="#D4FFD6" width="1.526" height="1.595"/>
		<rect x="45.232" y="83.232" fill="#D4FFD6" width="1.526" height="1.595"/>
		<path fill="#D4FFD6" d="M43.909,83.232c0.459,0.175,0.899,0.51,1.012,0.993c0.05,0.216,0.043,0.417-0.004,0.602h0.316v-1.595
			H43.909z"/>
		<path fill="#D4FFD6" d="M41.535,83.798c-0.009-0.012-0.018-0.023-0.025-0.034c-0.116-0.154-0.14-0.348-0.102-0.531h-0.696v1.595
			h0.664C41.317,84.469,41.346,84.104,41.535,83.798z"/>
		<rect x="45.232" y="81.638" fill="#D4FFD6" width="1.526" height="1.595"/>
		<path fill="#D4FFD6" d="M43.706,81.638v1.528c0.067,0.019,0.135,0.041,0.203,0.066h1.324v-1.595H43.706z"/>
		<path fill="#D4FFD6" d="M42.891,82.956c0.03,0.04,0.059,0.081,0.087,0.12c0.197-0.004,0.398,0.014,0.595,0.057
			c0.044,0.01,0.088,0.021,0.132,0.033v-1.528h-1.468v0.925C42.492,82.582,42.725,82.734,42.891,82.956z"/>
		<path fill="#D4FFD6" d="M41.796,82.67c0.148-0.088,0.298-0.119,0.442-0.107v-0.925h-1.526v1.595h0.696
			C41.456,83,41.604,82.781,41.796,82.67z"/>
		<rect x="42.238" y="80.043" fill="#D4FFD6" width="1.468" height="1.595"/>
		<rect x="40.712" y="80.043" fill="#D4FFD6" width="1.526" height="1.595"/>
		<path fill="#D4FFD6" d="M43.548,78.448h-1.31v1.595h1.468v-0.767C43.513,79.057,43.46,78.728,43.548,78.448z"/>
		<rect x="40.712" y="78.448" fill="#D4FFD6" width="1.526" height="1.595"/>
		<rect x="37.659" y="91.145" fill="#D40006" width="1.526" height="1.596"/>
		<rect x="36.133" y="91.145" fill="#D40006" width="1.526" height="1.596"/>
		<path d="M39.013,88.002c-0.02-0.014-0.039-0.03-0.057-0.047h-1.297v1.596h1.526v-1.379C39.12,88.124,39.062,88.067,39.013,88.002z
			"/>
		<rect x="37.659" y="89.55" width="1.526" height="1.595"/>
		<rect x="36.133" y="89.55" width="1.526" height="1.595"/>
		<rect x="36.133" y="87.955" width="1.526" height="1.596"/>
		<rect x="55.858" y="87.955" width="1.526" height="1.596"/>
		<path fill="#BF0000" d="M60.379,87.955h-1.526v1.463c0.181-0.018,0.366-0.018,0.557,0c0.179,0.018,0.378,0.051,0.583,0.103
			c0.07,0.009,0.143,0.02,0.213,0.03h0.174V87.955L60.379,87.955z"/>
		<rect x="58.853" y="86.361" fill="#BF0000" width="1.526" height="1.594"/>
		<path fill="#91A900" d="M60.379,86.019c-0.512,0.138-1.014,0.224-1.526,0.247v0.095h1.526V86.019L60.379,86.019z"/>
		<path fill="#293F00" d="M57.668,86.211c-0.104-0.014-0.2-0.061-0.283-0.129v0.279h1.468v-0.096
			C58.467,86.283,58.075,86.268,57.668,86.211z"/>
		<path d="M58.853,89.418v-1.463h-1.468v1.596h0.049c0.408-0.068,0.815-0.102,1.223-0.107
			C58.721,89.433,58.786,89.424,58.853,89.418z"/>
		<rect x="52.806" y="86.361" width="1.526" height="1.594"/>
		<rect x="51.279" y="86.361" width="1.526" height="1.594"/>
		<rect x="46.759" y="86.361" width="1.526" height="1.594"/>
		<rect x="48.285" y="86.361" width="1.526" height="1.594"/>
		<rect x="49.812" y="86.361" width="1.468" height="1.594"/>
		<rect x="43.706" y="86.361" width="1.526" height="1.594"/>
		<rect x="45.232" y="86.361" width="1.526" height="1.594"/>
		<rect x="42.238" y="86.361" width="1.468" height="1.594"/>
		<rect x="40.712" y="86.361" width="1.526" height="1.594"/>
		<rect x="57.385" y="86.361" width="1.468" height="1.594"/>
		<rect x="55.858" y="86.361" width="1.526" height="1.594"/>
		<rect x="54.332" y="97.463" width="1.526" height="1.595"/>
		<rect x="54.332" y="95.868" width="1.526" height="1.595"/>
		<rect x="54.332" y="94.273" width="1.526" height="1.595"/>
		<rect x="54.332" y="92.74" width="1.526" height="1.533"/>
		<rect x="54.332" y="91.145" width="1.526" height="1.596"/>
		<rect x="54.332" y="89.55" width="1.526" height="1.595"/>
		<rect x="54.332" y="87.955" width="1.526" height="1.596"/>
		<rect x="54.332" y="86.361" width="1.526" height="1.594"/>
		<rect x="54.332" y="84.827" width="1.526" height="1.533"/>
		<rect x="54.332" y="83.232" width="1.526" height="1.595"/>
		<rect x="54.332" y="81.638" width="1.526" height="1.595"/>
		<path d="M55.234,80.086c-0.012-0.015-0.026-0.028-0.038-0.043h-0.864v1.595h1.527V80.32C55.625,80.334,55.375,80.25,55.234,80.086
			z"/>
		<path d="M54.332,79.133v0.91h0.864C54.923,79.727,54.63,79.428,54.332,79.133z"/>
		<rect x="52.806" y="100.652" width="1.526" height="1.533"/>
		<rect x="52.806" y="99.058" width="1.526" height="1.595"/>
		<rect x="52.806" y="97.463" width="1.526" height="1.595"/>
		<rect x="52.806" y="84.827" fill="#B7A9FF" width="1.526" height="1.533"/>
		<path fill="#F7BFFF" d="M52.806,77.526v0.922h0.836C53.35,78.152,53.066,77.85,52.806,77.526z"/>
		<rect x="51.279" y="100.652" width="1.526" height="1.533"/>
		<rect x="51.279" y="99.058" width="1.526" height="1.595"/>
		<rect x="51.279" y="97.463" width="1.526" height="1.595"/>
		<rect x="51.279" y="84.827" fill="#B7A9FF" width="1.526" height="1.533"/>
		<path fill="#F7BFFF" d="M52.592,77.254c-0.082-0.111-0.157-0.225-0.229-0.34h-1.084v1.534h1.526v-0.922
			C52.733,77.437,52.66,77.348,52.592,77.254z"/>
		<path d="M51.724,75.32h-0.444v1.594h1.084C52.051,76.412,51.839,75.879,51.724,75.32z"/>
		<rect x="49.812" y="97.463" width="1.468" height="1.595"/>
		<rect x="49.812" y="84.827" fill="#B7A9FF" width="1.468" height="1.533"/>
		<rect x="49.812" y="80.043" width="1.468" height="1.595"/>
		<rect x="49.812" y="78.448" width="1.468" height="1.595"/>
		<rect x="49.812" y="76.914" fill="#F7BFFF" width="1.468" height="1.534"/>
		<rect x="49.812" y="75.32" width="1.468" height="1.594"/>
		<rect x="48.285" y="97.463" width="1.526" height="1.595"/>
		<rect x="48.285" y="84.827" fill="#B7A9FF" width="1.526" height="1.533"/>
		<rect x="48.285" y="80.043" width="1.526" height="1.595"/>
		<rect x="48.285" y="78.448" width="1.526" height="1.595"/>
		<rect x="48.285" y="76.914" fill="#F7BFFF" width="1.526" height="1.534"/>
		<rect x="48.285" y="75.32" width="1.526" height="1.594"/>
		<rect x="46.759" y="97.463" width="1.526" height="1.595"/>
		<rect x="46.759" y="84.827" fill="#B7A9FF" width="1.526" height="1.533"/>
		<rect x="46.759" y="83.232" width="1.526" height="1.595"/>
		<rect x="46.759" y="81.638" width="1.526" height="1.595"/>
		<rect x="46.759" y="80.043" width="1.526" height="1.595"/>
		<rect x="46.759" y="78.448" width="1.526" height="1.595"/>
		<rect x="46.759" y="76.914" fill="#F7BFFF" width="1.526" height="1.534"/>
		<path d="M46.759,75.346v1.568h1.526V75.32h-0.713C47.305,75.354,47.033,75.363,46.759,75.346z"/>
		<path fill="#A92200" d="M47.572,75.32h0.713v-0.152C48.053,75.239,47.814,75.289,47.572,75.32z"/>
		<rect x="45.232" y="97.463" width="1.526" height="1.595"/>
		<rect x="45.232" y="84.827" fill="#B7A9FF" width="1.526" height="1.533"/>
		<rect x="45.232" y="80.043" width="1.526" height="1.595"/>
		<path d="M45.332,78.448c0.079,0.249,0.045,0.538-0.1,0.753v0.842h1.526v-1.595H45.332z"/>
		<path fill="#F7BFFF" d="M45.232,76.914v1.325c0.043,0.063,0.076,0.135,0.1,0.209h1.427v-1.534H45.232z"/>
		<path d="M46.491,75.32h-1.259v1.594h1.526v-1.568C46.67,75.34,46.581,75.332,46.491,75.32z"/>
		<rect x="43.706" y="97.463" width="1.526" height="1.595"/>
		<path fill="#B7A9FF" d="M44.917,84.827c-0.127,0.499-0.559,0.884-1.033,1.144c-0.06,0.033-0.119,0.055-0.178,0.072v0.318h1.526
			v-1.534H44.917L44.917,84.827z"/>
		<rect x="43.706" y="80.043" width="1.526" height="1.595"/>
		<path d="M44.6,79.52c-0.058,0-0.111-0.006-0.163-0.015c-0.05,0.009-0.102,0.015-0.158,0.015c-0.254,0-0.445-0.097-0.574-0.243
			v0.767h1.526v-0.842C45.106,79.389,44.896,79.52,44.6,79.52z"/>
		<path fill="#F7BFFF" d="M44.439,77.936c0.05-0.01,0.104-0.016,0.161-0.016c0.295,0,0.506,0.132,0.632,0.319v-1.325h-1.526v1.249
			c0.129-0.146,0.32-0.243,0.574-0.243C44.336,77.92,44.389,77.926,44.439,77.936z"/>
		<rect x="43.706" y="75.32" width="1.526" height="1.594"/>
		<rect x="42.238" y="100.652" width="1.468" height="1.533"/>
		<rect x="42.238" y="99.058" width="1.468" height="1.595"/>
		<rect x="42.238" y="97.463" width="1.468" height="1.595"/>
		<path fill="#B7A9FF" d="M42.926,85.818c-0.19,0.17-0.447,0.268-0.688,0.25v0.293h1.468v-0.318
			C43.398,86.133,43.116,86.021,42.926,85.818z"/>
		<path fill="#F7BFFF" d="M43.706,78.163v-1.249h-1.468v1.534h1.31C43.581,78.344,43.633,78.246,43.706,78.163z"/>
		<rect x="42.238" y="75.32" width="1.468" height="1.594"/>
		<rect x="40.712" y="100.652" width="1.526" height="1.533"/>
		<rect x="40.712" y="99.058" width="1.526" height="1.595"/>
		<rect x="40.712" y="97.463" width="1.526" height="1.595"/>
		<path fill="#B7A9FF" d="M41.669,85.684c-0.133-0.256-0.244-0.555-0.293-0.856h-0.664v1.533h1.526v-0.292
			C42.012,86.053,41.8,85.938,41.669,85.684z"/>
		<rect x="40.712" y="76.914" fill="#F7BFFF" width="1.526" height="1.534"/>
		<rect x="40.712" y="75.32" width="1.526" height="1.594"/>
		<rect x="39.186" y="97.463" width="1.526" height="1.595"/>
		<rect x="39.186" y="95.868" width="1.526" height="1.595"/>
		<path d="M39.186,95.838v0.03h1.526v-0.814C40.198,95.305,39.694,95.579,39.186,95.838z"/>
		<path d="M40.712,93.303V92.74h-1.526v1.302C39.688,93.782,40.193,93.527,40.712,93.303z"/>
		<rect x="39.186" y="91.145" width="1.526" height="1.596"/>
		<rect x="39.186" y="89.55" width="1.526" height="1.595"/>
		<path d="M40.313,87.955c-0.148,0.219-0.406,0.365-0.672,0.365c-0.174,0-0.329-0.057-0.455-0.148v1.379h1.526v-1.596H40.313
			L40.313,87.955z"/>
		<path d="M39.186,86.361v0.256c0.092-0.037,0.19-0.059,0.294-0.057c0.159,0.002,0.359,0.046,0.495,0.135
			c0.128,0.084,0.263,0.194,0.335,0.335c0.09,0.176,0.121,0.291,0.13,0.489c0.007,0.16-0.042,0.311-0.127,0.436h0.399v-1.594H39.186
			L39.186,86.361z"/>
		<rect x="39.186" y="84.827" width="1.526" height="1.533"/>
		<rect x="39.186" y="83.232" width="1.526" height="1.595"/>
		<rect x="39.186" y="81.638" width="1.526" height="1.595"/>
		<rect x="39.186" y="80.043" width="1.526" height="1.595"/>
		<rect x="39.186" y="78.448" width="1.526" height="1.595"/>
		<rect x="39.186" y="76.914" width="1.526" height="1.534"/>
		<rect x="39.186" y="75.32" width="1.526" height="1.594"/>
		<path d="M38.68,87.359c0-0.328,0.212-0.623,0.505-0.742V86.36h-1.527v1.595h1.297C38.789,87.81,38.68,87.6,38.68,87.359z"/>
		<rect x="36.133" y="86.361" width="1.526" height="1.594"/>
	</g>
</g>
</svg>
